<?xml version="1.0" standalone="no"?>
<!DOCTYPE svg PUBLIC "-//W3C//DTD SVG 20010904//EN"
 "http://www.w3.org/TR/2001/REC-SVG-20010904/DTD/svg10.dtd">
<svg version="1.0" xmlns="http://www.w3.org/2000/svg"
 width="890.000000pt" height="817.000000pt" viewBox="0 0 890.000000 817.000000"
 preserveAspectRatio="xMidYMid meet">

<g transform="translate(0.000000,817.000000) scale(0.100000,-0.100000)"
fill="#000000" stroke="none">
<path d="M5840 8154 c-394 -86 -763 -433 -952 -894 -112 -272 -153 -483 -153
-780 1 -173 4 -210 28 -328 71 -341 215 -593 430 -756 234 -175 504 -218 788
-126 358 117 672 444 852 885 98 238 136 427 144 701 5 166 2 209 -17 325 -61
378 -233 679 -482 846 -187 125 -428 173 -638 127z"/>
<path d="M2640 8119 c-367 -96 -646 -437 -741 -909 -53 -264 -36 -619 42 -883
91 -303 216 -524 413 -725 203 -208 427 -317 676 -329 450 -22 818 313 958
872 74 293 54 700 -48 1007 -103 307 -267 562 -475 737 -138 118 -257 182
-419 226 -118 32 -291 34 -406 4z"/>
<path d="M706 5939 c-204 -34 -389 -159 -518 -348 -136 -199 -196 -436 -185
-726 10 -242 60 -432 172 -660 282 -568 826 -873 1295 -726 197 62 375 221
478 426 88 176 124 342 124 565 0 283 -69 542 -215 801 -199 354 -537 615
-867 668 -75 12 -212 12 -284 0z"/>
<path d="M7985 5943 c-356 -29 -719 -263 -958 -617 -126 -187 -225 -429 -263
-641 -26 -147 -24 -400 4 -521 92 -402 349 -663 704 -715 597 -87 1240 470
1399 1212 27 124 36 341 19 462 -65 481 -369 793 -800 820 -36 2 -83 2 -105 0z"/>
<path d="M4210 4985 c-8 -2 -51 -9 -95 -16 -275 -42 -531 -199 -787 -483 -107
-118 -283 -349 -488 -640 -342 -485 -500 -673 -760 -909 -237 -215 -366 -360
-500 -563 -186 -282 -293 -573 -326 -891 -22 -212 -3 -397 63 -593 132 -395
447 -714 813 -823 305 -91 592 -71 1165 84 683 183 870 214 1180 190 234 -18
418 -53 780 -152 83 -22 191 -51 240 -65 568 -153 887 -153 1221 1 339 157
604 449 712 785 49 153 57 215 56 430 0 188 -2 215 -28 325 -81 346 -248 662
-512 965 -84 97 -173 185 -372 369 -199 183 -407 442 -622 776 -332 516 -452
679 -612 830 -241 227 -516 346 -866 375 -111 9 -229 11 -262 5z"/>
</g>
</svg>
