<?xml version="1.0" encoding="UTF-8"?>
<svg xmlns="http://www.w3.org/2000/svg" xmlns:xlink="http://www.w3.org/1999/xlink" width="160px" height="77px" viewBox="0 0 160 77" version="1.1">
<g id="surface1">
<path style=" stroke:none;fill-rule:nonzero;fill:rgb(0%,0%,0%);fill-opacity:1;" d="M 22.554688 2.03125 C 9.894531 5.242188 5.425781 22.886719 14.574219 33.367188 C 15.957031 34.972656 15.851562 35.613281 13.085938 39.140625 C 10.53125 42.671875 10.105469 44.0625 10.105469 50.265625 C 10.105469 56.359375 10.53125 57.964844 13.085938 61.277344 C 17.128906 66.625 21.0625 68.445312 28.617188 68.445312 C 34.363281 68.445312 35.425781 68.015625 38.9375 65.023438 C 43.085938 61.277344 46.703125 54.542969 46.808594 50.476562 L 46.808594 48.125 L 117.019531 48.125 L 117.019531 50.585938 C 117.019531 55.289062 122.128906 63.632812 126.488281 66.089844 C 132.234375 69.300781 140.957031 69.300781 145.746094 65.984375 C 152.019531 61.707031 153.722656 58.390625 153.722656 50.371094 C 153.722656 44.0625 153.296875 42.671875 150.746094 39.140625 C 147.980469 35.613281 147.871094 34.972656 149.253906 33.367188 C 157.019531 24.382812 155.425781 9.945312 145.746094 3.957031 C 142.980469 2.246094 140.425781 1.605469 136.0625 1.710938 C 126.277344 1.816406 119.253906 7.699219 117.554688 17.324219 L 116.808594 21.390625 L 47.019531 21.390625 L 46.277344 17.109375 C 44.46875 6.097656 33.722656 -0.75 22.554688 2.03125 Z M 37.234375 7.484375 C 41.171875 10.265625 43.617188 15.398438 43.617188 20.855469 L 43.617188 24.597656 L 120.210938 24.597656 L 120.210938 20.855469 C 120.210938 11.871094 126.171875 5.347656 135 4.597656 C 140.425781 4.0625 145.320312 6.523438 149.148438 11.871094 C 153.511719 17.753906 151.0625 29.089844 144.679688 33.046875 L 141.488281 34.972656 L 145.636719 38.285156 C 155.210938 45.984375 152.445312 61.492188 140.746094 65.34375 C 131.171875 68.445312 120.210938 60.210938 120.210938 49.730469 L 120.210938 45.984375 L 43.617188 45.984375 L 43.617188 49.835938 C 43.617188 55.503906 39.789062 61.601562 34.574219 64.167969 C 29.363281 66.734375 26.703125 66.839844 22.019531 64.808594 C 10.957031 60.101562 9.042969 46.628906 18.191406 38.394531 L 22.445312 34.648438 L 19.679688 33.152344 C 13.085938 29.625 10.425781 18.714844 14.46875 11.976562 C 18.828125 4.492188 30 2.351562 37.234375 7.484375 Z M 37.234375 7.484375 "/>
<path style=" stroke:none;fill-rule:nonzero;fill:rgb(0%,0%,0%);fill-opacity:1;" d="M 20.105469 8.875 C 16.0625 11.550781 12.765625 18.609375 14.679688 20.535156 C 15.425781 21.28125 16.382812 20.210938 17.765625 17.003906 C 19.679688 12.726562 21.914062 10.800781 26.914062 9.195312 C 27.871094 8.875 28.722656 8.128906 28.722656 7.484375 C 28.722656 5.5625 23.828125 6.308594 20.105469 8.875 Z M 20.105469 8.875 "/>
<path style=" stroke:none;fill-rule:nonzero;fill:rgb(0%,0%,0%);fill-opacity:1;" d="M 146.488281 52.402344 C 145.636719 56.464844 142.339844 59.78125 138.296875 60.636719 C 135 61.277344 133.828125 64.167969 136.808594 64.167969 C 140.851562 64.167969 146.0625 60.53125 147.980469 56.253906 C 150.320312 51.011719 150.53125 49.195312 148.511719 49.195312 C 147.765625 49.195312 146.808594 50.585938 146.488281 52.402344 Z M 146.488281 52.402344 "/>
</g>
</svg>
