<?xml version="1.0" encoding="UTF-8"?>
<svg xmlns="http://www.w3.org/2000/svg" xmlns:xlink="http://www.w3.org/1999/xlink" width="350px" height="75px" viewBox="0 0 347 75" version="1.1">
<g id="surface1">
<path style=" stroke:none;fill-rule:nonzero;fill:rgb(0%,0%,0%);fill-opacity:1;" d="M 308.996094 4.988281 C 303.824219 7.578125 301.636719 9.675781 299.347656 14.164062 C 296.960938 18.851562 296.960938 23.039062 299.347656 27.726562 C 302.132812 33.011719 305.714844 36.003906 316.257812 41.488281 C 321.332031 44.183594 326.40625 47.472656 327.402344 48.769531 C 330.085938 52.0625 329.789062 56.449219 326.804688 59.441406 C 324.714844 61.535156 323.722656 61.835938 320.636719 61.335938 C 311.484375 59.742188 310.789062 59.242188 308.203125 52.0625 C 305.8125 45.578125 305.613281 45.378906 302.332031 45.378906 C 299.445312 45.378906 298.851562 45.777344 298.351562 48.371094 C 297.953125 49.964844 297.65625 54.15625 297.554688 57.445312 L 297.457031 63.628906 L 302.730469 65.925781 C 309.792969 69.015625 325.410156 69.8125 331.777344 67.421875 C 343.914062 62.734375 347.796875 46.976562 338.941406 37.898438 C 337.25 36.105469 331.382812 32.511719 326.007812 29.722656 C 311.484375 22.441406 308.699219 18.648438 313.472656 12.566406 C 315.761719 9.675781 318.347656 9.375 324.816406 11.269531 C 328.398438 12.367188 328.792969 12.964844 330.285156 17.953125 C 331.777344 23.238281 331.976562 23.4375 335.558594 23.738281 C 338.84375 24.035156 339.242188 23.738281 339.835938 21.242188 C 340.234375 19.746094 340.632812 15.558594 340.632812 12.066406 L 340.734375 5.785156 L 336.253906 4.386719 C 329.292969 2.292969 313.773438 2.59375 308.996094 4.988281 Z M 308.996094 4.988281 "/>
<path style=" stroke:none;fill-rule:nonzero;fill:rgb(0%,0%,0%);fill-opacity:1;" d="M 4.972656 6.382812 C 4.972656 8.777344 6.566406 9.972656 10.046875 9.972656 C 11.839844 9.972656 11.9375 10.972656 11.9375 35.40625 C 11.9375 49.367188 11.640625 60.835938 11.242188 60.835938 C 10.746094 60.835938 8.953125 61.734375 7.261719 62.832031 C 5.074219 64.128906 4.179688 65.324219 4.578125 66.324219 C 5.074219 67.621094 7.660156 67.820312 20.492188 67.820312 L 35.8125 67.820312 L 35.8125 65.425781 C 35.8125 62.832031 34.222656 61.835938 29.746094 61.835938 L 26.859375 61.835938 L 26.859375 11.269531 L 30.839844 9.476562 C 33.527344 8.277344 34.820312 7.082031 34.621094 6.082031 C 34.320312 4.6875 32.035156 4.488281 19.597656 4.1875 L 4.972656 3.890625 Z M 4.972656 6.382812 "/>
<path style=" stroke:none;fill-rule:nonzero;fill:rgb(0%,0%,0%);fill-opacity:1;" d="M 41.785156 6.382812 C 41.785156 8.777344 43.375 9.972656 46.855469 9.972656 C 48.648438 9.972656 48.746094 10.972656 48.746094 35.207031 L 48.746094 60.539062 L 44.769531 62.332031 C 42.082031 63.53125 40.789062 64.726562 40.988281 65.726562 C 41.285156 67.121094 43.574219 67.320312 56.707031 67.621094 C 80.582031 68.019531 88.339844 66.125 96.199219 57.644531 C 107.941406 44.78125 106.847656 22.539062 93.914062 11.070312 C 86.75 4.789062 83.070312 3.988281 60.984375 3.988281 L 41.785156 3.988281 Z M 81.675781 14.859375 C 90.628906 24.335938 91.523438 44.878906 83.269531 53.65625 C 79.1875 58.046875 74.414062 59.542969 66.355469 59.042969 L 63.667969 58.84375 L 63.867188 35.605469 L 64.167969 12.464844 L 69.640625 11.867188 C 72.625 11.570312 75.707031 11.269531 76.503906 11.171875 C 77.300781 11.070312 79.585938 12.765625 81.675781 14.859375 Z M 81.675781 14.859375 "/>
<path style=" stroke:none;fill-rule:nonzero;fill:rgb(0%,0%,0%);fill-opacity:1;" d="M 111.421875 6.382812 C 111.421875 8.777344 113.015625 9.972656 116.496094 9.972656 C 118.285156 9.972656 118.386719 10.972656 118.386719 35.207031 L 118.386719 60.539062 L 114.40625 62.332031 C 111.71875 63.53125 110.425781 64.726562 110.625 65.726562 C 110.925781 67.121094 113.3125 67.320312 127.636719 67.621094 L 144.25 67.820312 L 144.25 65.425781 C 144.25 62.933594 142.660156 61.835938 138.78125 61.835938 C 133.707031 61.835938 133.308594 61.136719 133.308594 52.859375 L 133.308594 45.078125 L 142.164062 44.679688 C 149.027344 44.382812 152.011719 43.785156 155.792969 41.789062 C 168.226562 35.40625 170.714844 19.746094 160.867188 10.171875 C 155.394531 4.789062 151.214844 3.988281 130.222656 3.988281 L 111.421875 3.988281 Z M 147.335938 12.265625 C 150.023438 14.363281 151.515625 18.152344 151.515625 23.335938 C 151.613281 32.3125 147.335938 36.902344 138.878906 36.902344 C 133.40625 36.902344 133.210938 36.304688 133.507812 23.835938 L 133.804688 12.464844 L 138.78125 11.867188 C 141.566406 11.570312 144.25 11.269531 144.75 11.171875 C 145.347656 11.070312 146.441406 11.570312 147.335938 12.265625 Z M 147.335938 12.265625 "/>
<path style=" stroke:none;fill-rule:nonzero;fill:rgb(0%,0%,0%);fill-opacity:1;" d="M 171.113281 6.382812 C 171.113281 8.777344 172.703125 9.972656 176.1875 9.972656 C 177.976562 9.972656 178.078125 10.972656 178.078125 35.207031 L 178.078125 60.539062 L 174.097656 62.332031 C 171.410156 63.53125 170.117188 64.726562 170.316406 65.726562 C 170.613281 67.121094 173.796875 67.320312 195.585938 67.621094 L 220.554688 67.820312 L 221.253906 63.230469 C 221.550781 60.636719 221.847656 56.148438 221.847656 53.160156 L 221.847656 47.773438 L 217.671875 48.070312 C 213.691406 48.371094 213.59375 48.570312 212.199219 53.058594 C 210.707031 58.445312 210.410156 58.542969 199.765625 59.140625 L 193 59.441406 L 193 39.695312 L 203.246094 39.992188 L 213.394531 40.390625 L 213.691406 35.605469 L 213.988281 30.816406 L 203.542969 31.515625 L 193 32.214844 L 193 11.667969 L 201.257812 12.464844 C 205.734375 12.867188 209.511719 13.265625 209.710938 13.464844 C 209.8125 13.5625 210.308594 15.660156 210.707031 18.050781 C 211.402344 22.339844 211.503906 22.441406 215.480469 22.738281 C 219.5625 23.039062 219.5625 22.9375 220.15625 19.25 C 220.554688 17.152344 220.855469 12.867188 220.855469 9.675781 L 220.855469 3.988281 L 171.113281 3.988281 Z M 171.113281 6.382812 "/>
<path style=" stroke:none;fill-rule:nonzero;fill:rgb(0%,0%,0%);fill-opacity:1;" d="M 229.808594 10.871094 C 229.808594 14.660156 230.105469 19.148438 230.40625 20.84375 C 231 23.636719 231.398438 23.9375 234.882812 23.9375 L 238.660156 23.9375 L 239.359375 17.953125 C 239.855469 13.164062 240.351562 11.96875 241.746094 11.96875 C 242.640625 11.96875 245.527344 11.667969 248.113281 11.371094 L 252.6875 10.671875 L 252.6875 59.742188 L 247.714844 61.933594 C 244.234375 63.429688 242.742188 64.628906 242.742188 65.925781 C 242.742188 67.71875 243.734375 67.820312 259.652344 67.820312 L 276.566406 67.820312 L 276.566406 65.324219 C 276.566406 62.832031 275.570312 62.234375 269.601562 61.636719 L 267.113281 61.335938 L 266.816406 36.003906 L 266.617188 10.671875 L 272.289062 11.371094 C 278.554688 12.066406 279.550781 12.964844 279.550781 17.652344 C 279.550781 22.839844 280.445312 23.9375 284.523438 23.9375 C 288.203125 23.9375 288.203125 23.835938 288.902344 19.347656 C 289.199219 16.753906 289.5 12.265625 289.5 9.375 L 289.5 3.988281 L 229.808594 3.988281 Z M 229.808594 10.871094 "/>
</g>
</svg>
