<svg version="1.1" preserveAspectRatio="none" xmlns="http://www.w3.org/2000/svg" width="500" height="500" viewBox="0 0 500 500"><rect width="100%" height="100%" fill="#EFEBE5" fill-opacity="1"/><svg viewBox="80.3734 325.9385 395.4419 212.472" width="333" height="178.92179862579056" x="83.5px" y="160.5391px" xmlns="http://www.w3.org/2000/svg" xmlns:xlink="http://www.w3.org/1999/xlink" preserveAspectRatio="none"><defs></defs><style>.companyName {fill:#FF7E73;fill-opacity:1;}.icon1 {fill:#776464;fill-opacity:1;}.icon2 {fill:#FF7E73;fill-opacity:1;}.icon3 {fill:#493838;fill-opacity:1;}.icon3-str {stroke:#493838;stroke-opacity:1;}.text {fill:#776464;fill-opacity:1;}</style><g opacity="1" transform="rotate(0 80.3734 513.9105)">
<svg width="395.4419" height="24.5" x="80.3734" y="513.9105" version="1.1" preserveAspectRatio="none" viewBox="1.8 -31 628.7600000000001 38.96">
  <g transform="matrix(1 0 0 1 0 0)" class="text"><path id="id-6izo4zJp27" d="M16.80-16.56L20.24-16.56L20.24 0L16.52 0L16.52-2.72Q15.64-1.56 13.96-0.58Q12.28 0.40 10.16 0.40L10.16 0.40Q7.80 0.40 5.90-0.62Q4-1.64 2.90-3.60Q1.80-5.56 1.80-8.28L1.80-8.28Q1.80-11 2.94-13.02Q4.08-15.04 6.02-16.14Q7.96-17.24 10.32-17.24L10.32-17.24Q12.44-17.24 14-16.32Q15.56-15.40 16.52-13.92L16.52-13.92L16.80-16.56ZM11.16-2.68Q13.20-2.68 14.66-3.82Q16.12-4.96 16.52-6.92L16.52-6.92L16.52-10.20Q16.04-11.96 14.52-13.06Q13-14.16 11.04-14.16L11.04-14.16Q9.56-14.16 8.30-13.44Q7.04-12.72 6.30-11.42Q5.56-10.12 5.56-8.48L5.56-8.48Q5.56-6.88 6.32-5.56Q7.08-4.24 8.36-3.46Q9.64-2.68 11.16-2.68L11.16-2.68Z M51.96-17.24Q54.36-17.24 55.78-15.88Q57.20-14.52 57.28-12.28L57.28-12.28L57.28 0L53.56 0L53.56-10.92Q53.44-13.84 50.92-14L50.92-14Q49.48-14 48.34-13.14Q47.20-12.28 46.56-10.88Q45.92-9.48 45.88-7.88L45.88-7.88L45.88 0L42.12 0L42.12-10.92Q42-13.84 39.40-14L39.40-14Q38-14 36.86-13.14Q35.72-12.28 35.08-10.86Q34.44-9.44 34.44-7.84L34.44-7.84L34.44 0L30.72 0L30.72-16.56L34.08-16.56L34.36-13.44Q35.32-15.24 36.98-16.24Q38.64-17.24 40.76-17.24L40.76-17.24Q42.76-17.24 44.12-16.30Q45.48-15.36 45.88-13.72L45.88-13.72Q46.92-15.36 48.52-16.30Q50.12-17.24 51.96-17.24L51.96-17.24Z M66.28-8.44Q66.28-10.88 67.46-12.90Q68.64-14.92 70.74-16.08Q72.84-17.24 75.48-17.24L75.48-17.24Q78.12-17.24 80.18-16.08Q82.24-14.92 83.38-12.92Q84.52-10.92 84.52-8.44L84.52-8.44Q84.52-5.96 83.38-3.94Q82.24-1.92 80.16-0.76Q78.08 0.40 75.40 0.40L75.40 0.40Q72.80 0.40 70.72-0.70Q68.64-1.80 67.46-3.80Q66.28-5.80 66.28-8.44L66.28-8.44ZM70.04-8.40Q70.04-6.84 70.74-5.52Q71.44-4.20 72.66-3.44Q73.88-2.68 75.36-2.68L75.36-2.68Q77.68-2.68 79.20-4.32Q80.72-5.96 80.72-8.40L80.72-8.40Q80.72-10.84 79.20-12.50Q77.68-14.16 75.36-14.16L75.36-14.16Q73.84-14.16 72.64-13.38Q71.44-12.60 70.74-11.28Q70.04-9.96 70.04-8.40L70.04-8.40Z M97.12-12.64Q97.76-14 98.94-15.04Q100.12-16.08 101.44-16.64Q102.76-17.20 103.76-17.24L103.76-17.24L103.60-13.52Q101.80-13.60 100.34-12.80Q98.88-12 98.06-10.58Q97.24-9.16 97.24-7.56L97.24-7.56L97.24 0L93.52 0L93.52-16.56L96.84-16.56L97.12-12.64Z M141.52-16.56L144.96-16.56L134.28 7.96L130.60 7.96L134.40-0.56L126.72-16.56L130.92-16.56L136.28-4.76L141.52-16.56Z M183.04-1.56Q181.92-0.64 180.38-0.12Q178.84 0.40 177.24 0.40L177.24 0.40Q174.56 0.40 172.50-0.68Q170.44-1.76 169.30-3.74Q168.16-5.72 168.16-8.32L168.16-8.32Q168.16-10.88 169.36-12.86Q170.56-14.84 172.56-15.92Q174.56-17 176.88-17L176.88-17Q180.68-17 183.16-14.92L183.16-14.92L181.28-12.48Q180.48-13.08 179.44-13.50Q178.40-13.92 177.20-13.92L177.20-13.92Q175.72-13.92 174.50-13.18Q173.28-12.44 172.58-11.16Q171.88-9.88 171.88-8.32L171.88-8.32Q171.88-6.76 172.62-5.48Q173.36-4.20 174.64-3.44Q175.92-2.68 177.56-2.68L177.56-2.68Q179.60-2.68 181.12-3.88L181.12-3.88L183.04-1.56Z M203.52-16.56L207.24-16.56L207.24 0L203.88 0L203.64-3.16Q202.80-1.48 201.04-0.42Q199.28 0.64 197.12 0.64L197.12 0.64Q194.84 0.64 193.38-0.74Q191.92-2.12 191.84-4.32L191.84-4.32L191.84-16.56L195.56-16.56L195.56-5.64Q195.64-4.24 196.38-3.42Q197.12-2.60 198.60-2.56L198.60-2.56Q199.96-2.56 201.08-3.38Q202.20-4.20 202.86-5.64Q203.52-7.08 203.52-8.84L203.52-8.84L203.52-16.56Z M217.72-16.56L221.44-16.56L221.44 0L217.72 0L217.72-16.56ZM217.44-22.52Q217.44-23.40 218.12-24Q218.80-24.60 219.68-24.60L219.68-24.60Q220.56-24.60 221.22-24Q221.88-23.40 221.88-22.52L221.88-22.52Q221.88-21.64 221.22-21.04Q220.56-20.44 219.68-20.44L219.68-20.44Q218.80-20.44 218.12-21.04Q217.44-21.64 217.44-22.52L217.44-22.52Z M245.48-31L249.20-31L249.20 0L245.44 0L245.44-2.60Q244.24-1.20 242.50-0.40Q240.76 0.40 238.68 0.40L238.68 0.40Q236.36 0.40 234.48-0.72Q232.60-1.84 231.54-3.86Q230.48-5.88 230.48-8.52L230.48-8.52Q230.48-11.20 231.60-13.18Q232.72-15.16 234.68-16.20Q236.64-17.24 239.12-17.24L239.12-17.24Q241-17.24 242.74-16.46Q244.48-15.68 245.48-14.32L245.48-14.32L245.48-31ZM239.84-2.80Q242-2.80 243.50-3.96Q245-5.12 245.44-7.08L245.44-7.08L245.44-10.20Q244.96-12 243.40-13.14Q241.84-14.28 239.84-14.28L239.84-14.28Q238.32-14.28 237.04-13.54Q235.76-12.80 235-11.50Q234.24-10.20 234.24-8.56L234.24-8.56Q234.24-6.96 235-5.64Q235.76-4.32 237.04-3.56Q238.32-2.80 239.84-2.80L239.84-2.80Z M273.20-16.56L276.64-16.56L276.64 0L272.92 0L272.92-2.72Q272.04-1.56 270.36-0.58Q268.68 0.40 266.56 0.40L266.56 0.40Q264.20 0.40 262.30-0.62Q260.40-1.64 259.30-3.60Q258.20-5.56 258.20-8.28L258.20-8.28Q258.20-11 259.34-13.02Q260.48-15.04 262.42-16.14Q264.36-17.24 266.72-17.24L266.72-17.24Q268.84-17.24 270.40-16.32Q271.96-15.40 272.92-13.92L272.92-13.92L273.20-16.56ZM267.56-2.68Q269.60-2.68 271.06-3.82Q272.52-4.96 272.92-6.92L272.92-6.92L272.92-10.20Q272.44-11.96 270.92-13.06Q269.40-14.16 267.44-14.16L267.44-14.16Q265.96-14.16 264.70-13.44Q263.44-12.72 262.70-11.42Q261.96-10.12 261.96-8.48L261.96-8.48Q261.96-6.88 262.72-5.56Q263.48-4.24 264.76-3.46Q266.04-2.68 267.56-2.68L267.56-2.68Z M300.68-31L304.40-31L304.40 0L300.64 0L300.64-2.60Q299.44-1.20 297.70-0.40Q295.96 0.40 293.88 0.40L293.88 0.40Q291.56 0.40 289.68-0.72Q287.80-1.84 286.74-3.86Q285.68-5.88 285.68-8.52L285.68-8.52Q285.68-11.20 286.80-13.18Q287.92-15.16 289.88-16.20Q291.84-17.24 294.32-17.24L294.32-17.24Q296.20-17.24 297.94-16.46Q299.68-15.68 300.68-14.32L300.68-14.32L300.68-31ZM295.04-2.80Q297.20-2.80 298.70-3.96Q300.20-5.12 300.64-7.08L300.64-7.08L300.64-10.20Q300.16-12 298.60-13.14Q297.04-14.28 295.04-14.28L295.04-14.28Q293.52-14.28 292.24-13.54Q290.96-12.80 290.20-11.50Q289.44-10.20 289.44-8.56L289.44-8.56Q289.44-6.96 290.20-5.64Q290.96-4.32 292.24-3.56Q293.52-2.80 295.04-2.80L295.04-2.80Z M313.40-8.44Q313.40-10.88 314.58-12.90Q315.76-14.92 317.86-16.08Q319.96-17.24 322.60-17.24L322.60-17.24Q325.24-17.24 327.30-16.08Q329.36-14.92 330.50-12.92Q331.64-10.92 331.64-8.44L331.64-8.44Q331.64-5.96 330.50-3.94Q329.36-1.92 327.28-0.76Q325.20 0.40 322.52 0.40L322.52 0.40Q319.92 0.40 317.84-0.70Q315.76-1.80 314.58-3.80Q313.40-5.80 313.40-8.44L313.40-8.44ZM317.16-8.40Q317.16-6.84 317.86-5.52Q318.56-4.20 319.78-3.44Q321-2.68 322.48-2.68L322.48-2.68Q324.80-2.68 326.32-4.32Q327.84-5.96 327.84-8.40L327.84-8.40Q327.84-10.84 326.32-12.50Q324.80-14.16 322.48-14.16L322.48-14.16Q320.96-14.16 319.76-13.38Q318.56-12.60 317.86-11.28Q317.16-9.96 317.16-8.40L317.16-8.40Z M370.84-16.56L374.28-16.56L374.28 0L370.56 0L370.56-2.72Q369.68-1.56 368-0.58Q366.32 0.40 364.20 0.40L364.20 0.40Q361.84 0.40 359.94-0.62Q358.04-1.64 356.94-3.60Q355.84-5.56 355.84-8.28L355.84-8.28Q355.84-11 356.98-13.02Q358.12-15.04 360.06-16.14Q362-17.24 364.36-17.24L364.36-17.24Q366.48-17.24 368.04-16.32Q369.60-15.40 370.56-13.92L370.56-13.92L370.84-16.56ZM365.20-2.68Q367.24-2.68 368.70-3.82Q370.16-4.96 370.56-6.92L370.56-6.92L370.56-10.20Q370.08-11.96 368.56-13.06Q367.04-14.16 365.08-14.16L365.08-14.16Q363.60-14.16 362.34-13.44Q361.08-12.72 360.34-11.42Q359.60-10.12 359.60-8.48L359.60-8.48Q359.60-6.88 360.36-5.56Q361.12-4.24 362.40-3.46Q363.68-2.68 365.20-2.68L365.20-2.68Z M403-23.84L406.76-23.84L406.76-16.52L411.28-16.52L411.28-13.56L406.76-13.56L406.76 0L403 0L403-13.56L399.96-13.56L399.96-16.52L403-16.52L403-23.84Z M431.48-16.56L435.20-16.56L435.20 0L431.84 0L431.60-3.16Q430.76-1.48 429-0.42Q427.24 0.64 425.08 0.64L425.08 0.64Q422.80 0.64 421.34-0.74Q419.88-2.12 419.80-4.32L419.80-4.32L419.80-16.56L423.52-16.56L423.52-5.64Q423.60-4.24 424.34-3.42Q425.08-2.60 426.56-2.56L426.56-2.56Q427.92-2.56 429.04-3.38Q430.16-4.20 430.82-5.64Q431.48-7.08 431.48-8.84L431.48-8.84L431.48-16.56Z M483.56-17.24Q485.96-17.24 487.38-15.88Q488.80-14.52 488.88-12.28L488.88-12.28L488.88 0L485.16 0L485.16-10.92Q485.04-13.84 482.52-14L482.52-14Q481.08-14 479.94-13.14Q478.80-12.28 478.16-10.88Q477.52-9.48 477.48-7.88L477.48-7.88L477.48 0L473.72 0L473.72-10.92Q473.60-13.84 471-14L471-14Q469.60-14 468.46-13.14Q467.32-12.28 466.68-10.86Q466.04-9.44 466.04-7.84L466.04-7.84L466.04 0L462.32 0L462.32-16.56L465.68-16.56L465.96-13.44Q466.92-15.24 468.58-16.24Q470.24-17.24 472.36-17.24L472.36-17.24Q474.36-17.24 475.72-16.30Q477.08-15.36 477.48-13.72L477.48-13.72Q478.52-15.36 480.12-16.30Q481.72-17.24 483.56-17.24L483.56-17.24Z M512.88-16.56L516.32-16.56L516.32 0L512.60 0L512.60-2.72Q511.72-1.56 510.04-0.58Q508.36 0.40 506.24 0.40L506.24 0.40Q503.88 0.40 501.98-0.62Q500.08-1.64 498.98-3.60Q497.88-5.56 497.88-8.28L497.88-8.28Q497.88-11 499.02-13.02Q500.16-15.04 502.10-16.14Q504.04-17.24 506.40-17.24L506.40-17.24Q508.52-17.24 510.08-16.32Q511.64-15.40 512.60-13.92L512.60-13.92L512.88-16.56ZM507.24-2.68Q509.28-2.68 510.74-3.82Q512.20-4.96 512.60-6.92L512.60-6.92L512.60-10.20Q512.12-11.96 510.60-13.06Q509.08-14.16 507.12-14.16L507.12-14.16Q505.64-14.16 504.38-13.44Q503.12-12.72 502.38-11.42Q501.64-10.12 501.64-8.48L501.64-8.48Q501.64-6.88 502.40-5.56Q503.16-4.24 504.44-3.46Q505.72-2.68 507.24-2.68L507.24-2.68Z M531.48 0.36Q529.64 0.36 527.98-0.28Q526.32-0.92 525.28-2.16L525.28-2.16L526.88-4.32Q527.88-3.36 528.98-2.84Q530.08-2.32 531.16-2.32L531.16-2.32Q532.48-2.32 533.32-2.84Q534.16-3.36 534.16-4.44L534.16-4.44Q534.16-5.28 533.64-5.80Q533.12-6.32 532.46-6.56Q531.80-6.80 530.24-7.28L530.24-7.28Q526-8.64 526-12.12L526-12.12Q526-14.20 527.54-15.68Q529.08-17.16 531.84-17.16L531.84-17.16Q533.60-17.16 534.96-16.72Q536.32-16.28 537.48-15.32L537.48-15.32L536-13.04Q535.36-13.72 534.38-14.12Q533.40-14.52 532.52-14.56L532.52-14.56Q531.40-14.56 530.60-14.02Q529.80-13.48 529.80-12.56L529.80-12.56Q529.80-11.80 530.32-11.30Q530.84-10.80 531.40-10.58Q531.96-10.36 533.60-9.84L533.60-9.84Q535.64-9.16 536.78-8.08Q537.92-7 537.92-5.16L537.92-5.16Q537.92-2.76 536.24-1.20Q534.56 0.36 531.48 0.36L531.48 0.36Z M560.56-1.56Q559.44-0.64 557.90-0.12Q556.36 0.40 554.76 0.40L554.76 0.40Q552.08 0.40 550.02-0.68Q547.96-1.76 546.82-3.74Q545.68-5.72 545.68-8.32L545.68-8.32Q545.68-10.88 546.88-12.86Q548.08-14.84 550.08-15.92Q552.08-17 554.40-17L554.40-17Q558.20-17 560.68-14.92L560.68-14.92L558.80-12.48Q558-13.08 556.96-13.50Q555.92-13.92 554.72-13.92L554.72-13.92Q553.24-13.92 552.02-13.18Q550.80-12.44 550.10-11.16Q549.40-9.88 549.40-8.32L549.40-8.32Q549.40-6.76 550.14-5.48Q550.88-4.20 552.16-3.44Q553.44-2.68 555.08-2.68L555.08-2.68Q557.12-2.68 558.64-3.88L558.64-3.88L560.56-1.56Z M567.92-8.44Q567.92-10.88 569.10-12.90Q570.28-14.92 572.38-16.08Q574.48-17.24 577.12-17.24L577.12-17.24Q579.76-17.24 581.82-16.08Q583.88-14.92 585.02-12.92Q586.16-10.92 586.16-8.44L586.16-8.44Q586.16-5.96 585.02-3.94Q583.88-1.92 581.80-0.76Q579.72 0.40 577.04 0.40L577.04 0.40Q574.44 0.40 572.36-0.70Q570.28-1.80 569.10-3.80Q567.92-5.80 567.92-8.44L567.92-8.44ZM571.68-8.40Q571.68-6.84 572.38-5.52Q573.08-4.20 574.30-3.44Q575.52-2.68 577-2.68L577-2.68Q579.32-2.68 580.84-4.32Q582.36-5.96 582.36-8.40L582.36-8.40Q582.36-10.84 580.84-12.50Q579.32-14.16 577-14.16L577-14.16Q575.48-14.16 574.28-13.38Q573.08-12.60 572.38-11.28Q571.68-9.96 571.68-8.40L571.68-8.40Z M596.76-23.84L600.52-23.84L600.52-16.52L605.04-16.52L605.04-13.56L600.52-13.56L600.52 0L596.76 0L596.76-13.56L593.72-13.56L593.72-16.52L596.76-16.52L596.76-23.84Z M627.12-16.56L630.56-16.56L630.56 0L626.84 0L626.84-2.72Q625.96-1.56 624.28-0.58Q622.60 0.40 620.48 0.40L620.48 0.40Q618.12 0.40 616.22-0.62Q614.32-1.64 613.22-3.60Q612.12-5.56 612.12-8.28L612.12-8.28Q612.12-11 613.26-13.02Q614.40-15.04 616.34-16.14Q618.28-17.24 620.64-17.24L620.64-17.24Q622.76-17.24 624.32-16.32Q625.88-15.40 626.84-13.92L626.84-13.92L627.12-16.56ZM621.48-2.68Q623.52-2.68 624.98-3.82Q626.44-4.96 626.84-6.92L626.84-6.92L626.84-10.20Q626.36-11.96 624.84-13.06Q623.32-14.16 621.36-14.16L621.36-14.16Q619.88-14.16 618.62-13.44Q617.36-12.72 616.62-11.42Q615.88-10.12 615.88-8.48L615.88-8.48Q615.88-6.88 616.64-5.56Q617.40-4.24 618.68-3.46Q619.96-2.68 621.48-2.68L621.48-2.68Z"/></g>
</svg>
</g><g opacity="1" transform="rotate(0 100.3357 421.9105)">
<svg width="355.5173" height="70" x="100.3357" y="421.9105" version="1.1" preserveAspectRatio="none" viewBox="1.04 -27.12 141.8 27.92">
  <g transform="matrix(1 0 0 1 0 0)" class="companyName"><path id="id-D6z1nYkh6" d="M10.52-2.56L14.20-2.04L14.16 0L1.28 0L1.04-1.28Q2.20-2.04 4.44-2.92L4.44-2.92L4.44-23.84L1.36-24.28L1.40-26.32L13.64-26.32L13.88-25.04Q12.40-24.16 10.52-23.40L10.52-23.40L10.52-2.56Z M29.76-26.64L29.76-26.64Q33.88-26.64 36.86-24.72Q39.84-22.80 41.40-19.76Q42.96-16.72 42.96-13.36L42.96-13.36Q42.96-7.52 39.34-3.84Q35.72-0.16 29.72 0L29.72 0L16.56 0L16.32-1.28Q17.48-2.04 19.72-2.92L19.72-2.92L19.72-23.92L16.88-24.28L16.92-26.32Q22.68-26.64 29.76-26.64ZM28.84-3.32L28.84-3.32Q32.28-3.32 34.42-6.08Q36.56-8.84 36.56-13.12L36.56-13.12Q36.56-16.44 35.18-19.32Q33.80-22.20 31.60-23.52L31.60-23.52L25.80-22.92L25.80-3.80Q27.44-3.32 28.84-3.32Z M59.28-9.52L54.72-9.48L54.72-2.72L59.52-2.04L59.48 0L45.64 0L45.40-1.28Q46.64-2.04 48.64-2.88L48.64-2.88L48.64-23.92L45.68-24.28L45.72-26.32L58.64-26.64Q63.28-26.64 66.14-24.18Q69-21.72 69-17.96L69-17.96Q69-14.40 66.28-12Q63.56-9.60 59.28-9.52L59.28-9.52ZM60.28-23.52L54.72-22.92L54.72-13.04Q56.32-12.72 57.80-12.72L57.80-12.72Q60.24-12.72 61.48-14.26Q62.72-15.80 62.72-18.04L62.72-18.04Q62.72-19.76 62.08-21.32Q61.44-22.88 60.28-23.52L60.28-23.52Z M88.52-8.20L91.88-7.96Q91.96-4.04 91.40 0L91.40 0L70.48 0L70.24-1.28Q71.40-2.04 73.64-2.92L73.64-2.92L73.64-23.92L70.68-24.28L70.72-26.32L91.60-26.32Q91.80-23.04 90.96-18.72L90.96-18.72L87.60-18.72L86.92-22.68L79.72-23.20L79.72-14.60L88.32-15.28L88.32-11.24L79.72-11.60L79.72-3.32L87.20-3.84L88.52-8.20Z M107.64-26.40L120.12-26.56L120.16-25.40Q120.16-21.28 119.48-18.12L119.48-18.12L116.28-18.12L115.68-23.16L110.64-23.56L110.64-2.64L114.72-2.04L114.68 0L100.72 0L100.48-1.28Q101.36-1.84 104.56-3.08L104.56-3.08L104.56-23.56L99.48-23.16L98.88-18.12L95.68-18.12Q95.00-21.28 95.00-25.40L95.00-25.40L95.04-26.56L107.64-26.40Z M142.84-7.24L142.84-7.24Q142.84-3.68 140.02-1.44Q137.20 0.80 132.92 0.80L132.92 0.80Q130.60 0.80 127.88 0.10Q125.16-0.60 123.40-1.76L123.40-1.76L123.36-2.88Q123.36-6.20 124.00-9.20L124.00-9.20L126.88-9.20L128.84-3.60Q131.36-2.44 134.60-2.44L134.60-2.44Q136.80-3.48 136.80-5.80L136.80-5.80Q136.80-7.92 134.20-9.36L134.20-9.36L128.20-12.40Q123.44-15.12 123.44-19.24L123.44-19.24Q123.44-22.72 126.32-24.92Q129.20-27.12 133.72-27.12L133.72-27.12Q137.72-27.12 141.64-25.68L141.64-25.68Q141.64-21.44 140.96-18.36L140.96-18.36L137.76-18.36L136.60-22.84Q134.28-24.04 131.04-23.96L131.04-23.96Q129.20-22.80 129.20-20.72L129.20-20.72Q129.20-19.52 130.26-18.54Q131.32-17.56 134.58-16.08Q137.84-14.60 139.38-13.54Q140.92-12.48 141.88-10.94Q142.84-9.40 142.84-7.24Z"/></g>
</svg>
</g><g opacity="1" transform="rotate(0 206.9909 325.9385)">
<svg width="142.2069" height="65.972" x="206.9909" y="325.9385" version="1.1" preserveAspectRatio="none" viewBox="4.432999610900879 28.861000061035156 91.135009765625 42.27899932861328">
  <g transform="matrix(1 0 0 1 0 0)" class="icon1"><g><path d="M8.394,41.44c-0.489,0-0.887-0.397-0.887-0.887c0-4.736,3.853-8.589,8.589-8.589c0.49,0,0.887,0.397,0.887,0.887   s-0.396,0.887-0.887,0.887c-3.758,0-6.814,3.057-6.814,6.815C9.281,41.043,8.883,41.44,8.394,41.44z"></path></g><g><path d="M83.876,71.14c-6.446,0-11.691-5.245-11.691-11.692c0-0.376,0.019-0.755,0.058-1.139L27.759,58.31   c0.038,0.383,0.058,0.764,0.058,1.138c0,6.447-5.244,11.692-11.692,11.692c-6.446,0-11.692-5.245-11.692-11.692   c0-3.757,1.813-7.262,4.81-9.447c-2.997-2.186-4.81-5.689-4.81-9.448c0-6.447,5.246-11.692,11.692-11.692   c6.448,0,11.692,5.245,11.692,11.692c0,0.375-0.02,0.756-0.058,1.139l44.483,0c-0.039-0.382-0.058-0.763-0.058-1.138   c0-6.447,5.245-11.692,11.691-11.692c6.448,0,11.693,5.245,11.693,11.692c0,3.757-1.813,7.261-4.81,9.448   c2.997,2.184,4.81,5.688,4.81,9.447C95.569,65.895,90.324,71.14,83.876,71.14z M74.337,56.535l-0.2,1.052   c-0.119,0.626-0.179,1.253-0.179,1.86c0,5.47,4.449,9.919,9.918,9.919c5.47,0,9.92-4.449,9.92-9.919c0-3.598-1.958-6.92-5.11-8.673   L87.29,50l1.396-0.775c3.152-1.752,5.11-5.076,5.11-8.672c0-5.469-4.45-9.918-9.92-9.918c-5.469,0-9.918,4.449-9.918,9.918   c0,0.608,0.06,1.233,0.179,1.859l0.2,1.052l-48.673,0l0.199-1.052c0.119-0.626,0.18-1.251,0.18-1.86   c0-5.469-4.449-9.918-9.919-9.918s-9.919,4.449-9.919,9.918c0,3.597,1.958,6.921,5.111,8.672L12.71,50l-1.394,0.775   c-3.153,1.752-5.111,5.075-5.111,8.672c0,5.47,4.449,9.919,9.919,9.919s9.919-4.449,9.919-9.919c0-0.607-0.061-1.232-0.18-1.859   l-0.199-1.052L74.337,56.535z"></path></g><g><path d="M83.904,68.035c-0.489,0-0.886-0.397-0.886-0.887c0-0.49,0.396-0.887,0.886-0.887c3.759,0,6.816-3.058,6.816-6.814   c0-0.491,0.396-0.888,0.886-0.888c0.491,0,0.888,0.396,0.888,0.888C92.494,64.182,88.642,68.035,83.904,68.035z"></path></g></g>
</svg>
</g></svg></svg>