<svg version="1.1" preserveAspectRatio="none" xmlns="http://www.w3.org/2000/svg" width="500" height="500" viewBox="0 0 500 500"><rect width="100%" height="100%" fill="#FCF2E8" fill-opacity="1"/><svg viewBox="823.4523 546.6331 518.8596 117.8" width="333" height="75.60311113064112" x="83.5px" y="212.1984px" xmlns="http://www.w3.org/2000/svg" xmlns:xlink="http://www.w3.org/1999/xlink" preserveAspectRatio="none"><defs></defs><style>.aIptOCySncolors-3 {fill:#4348FF;fill-opacity:1;}.aIptOCySncolors-4 {fill:#FEA732;fill-opacity:1;}.aIptOCySncolors-5 {fill:#FF8965;fill-opacity:1;}.aIptOCySncolors-6 {fill:#FED532;fill-opacity:1;}.aIptOCySncolors-7 {fill:#C6CEFF;fill-opacity:1;}.companyName {fill:#FE6232;fill-opacity:1;}.icon1 {fill:#FE6232;fill-opacity:1;}.icon2 {fill:#9545ED;fill-opacity:1;}.icon3 {fill:#F41616;fill-opacity:1;}.icon3-str {stroke:#F41616;stroke-opacity:1;}.shape {fill:#FFFFFF;fill-opacity:1;}.shapeStroke-str {stroke:#FE6232;stroke-opacity:1;}.text {fill:#FE6232;fill-opacity:1;}</style><g opacity="1" transform="rotate(0 823.4523 546.6331)">
<svg width="117.8003" height="117.8" x="823.4523" y="546.6331" version="1.1" preserveAspectRatio="none" viewBox="0 0 117.8003 117.8">
  <defs><rect x="0" y="0" width="117.8003" height="117.8" rx="150px" ry="150px" id="id-5kldYRpCP1708807366281"></rect></defs><use class="shape shapeStroke-str" style="stroke-width:0;" xlink:href="#id-5kldYRpCP1708807366281"></use>
</svg>
</g><g opacity="1" transform="rotate(0 848.4523 582.2077)">
<svg width="67.8003" height="46.6508" x="848.4523" y="582.2077" version="1.1" preserveAspectRatio="none" viewBox="19.97145652770996 44.98112487792969 160.04241943359375 110.11888122558594">
  <g transform="matrix(1 0 0 1 0 0)"><g><path d="M162.5 48.7c-4.1-2.5-8.9-3.9-14.3-3.7-16.5.6-25.3 9.2-30 17.1-3.5 4.7-5.4 10.5-5.4 16.4 0 17.8 8.3 25.2 10.8 36.2.5 2 .8 4.1.8 6.3 0 9-4.9 16.8-12.1 21.1-4.9-3.2-8.7-8.2-10.8-14.2 5-1.2 10.8-6.4 10.8-9.3 0-5.3-5.7-6.8-12.8-6.8-7.1 0-12.8 1.5-12.8 6.8 0 3.4 6.3 8.6 11.4 9.5-2.1 5.9-5.9 10.9-10.7 14-7.2-4.3-12.1-12.1-12.1-21.1 0-15 11.5-21.4 11.5-42.4 0-5.8-1.8-11.2-4.9-15.7-4.3-8.2-13.2-17.2-30.1-17.9-5.5-.2-10.3 1.2-14.5 3.8-19.3 11.9-23.5 49.3-7.4 70.5 10.9 14.4 2.5-18.8 5.9-33.1-.1 1.5-.2 3.1-.2 4.6 0 35.5 28.8 64.3 64.4 64.3s64.4-28.8 64.4-64.3c0-1.6-.1-3.1-.2-4.6 3.4 14.2-5.1 47.6 5.9 33.2 16.1-21.4 11.9-58.9-7.6-70.7zM68.7 95.1c-3.4 0-6.2-2.8-6.2-6.2 0-3.4 2.8-6.2 6.2-6.2 3.4 0 6.2 2.8 6.2 6.2.1 3.4-2.7 6.2-6.2 6.2zm62.6 0c-3.4 0-6.2-2.8-6.2-6.2 0-3.4 2.8-6.2 6.2-6.2 3.4 0 6.2 2.8 6.2 6.2.1 3.4-2.7 6.2-6.2 6.2z" data-color="1" class="icon1"></path></g></g>
</svg>
</g><g opacity="1" transform="rotate(0 959.2526 640.6331)">
<svg width="383.0593" height="23.8" x="959.2526" y="640.6331" version="1.1" preserveAspectRatio="none" viewBox="1.76 -30.88 626.56 38.92">
  <g transform="matrix(1 0 0 1 0 0)" class="text"><path id="id-6izo4zJp27" d="M11.44-21.60Q16.16-21.60 18.66-19.34Q21.16-17.08 21.16-12.52L21.16-12.52L21.16 0L16.44 0L16.44-2.60Q15.52-1.20 13.82-0.46Q12.12 0.28 9.72 0.28L9.72 0.28Q7.32 0.28 5.52-0.54Q3.72-1.36 2.74-2.82Q1.76-4.28 1.76-6.12L1.76-6.12Q1.76-9 3.90-10.74Q6.04-12.48 10.64-12.48L10.64-12.48L16.16-12.48L16.16-12.80Q16.16-15.04 14.82-16.24Q13.48-17.44 10.84-17.44L10.84-17.44Q9.04-17.44 7.30-16.88Q5.56-16.32 4.36-15.32L4.36-15.32L2.40-18.96Q4.08-20.24 6.44-20.92Q8.80-21.60 11.44-21.60L11.44-21.60ZM10.76-3.36Q12.64-3.36 14.10-4.22Q15.56-5.08 16.16-6.68L16.16-6.68L16.16-9.16L11-9.16Q6.68-9.16 6.68-6.32L6.68-6.32Q6.68-4.96 7.76-4.16Q8.84-3.36 10.76-3.36L10.76-3.36Z M55.72-21.60Q59.76-21.60 62.12-19.26Q64.48-16.92 64.48-12.24L64.48-12.24L64.48 0L59.48 0L59.48-11.60Q59.48-14.40 58.24-15.82Q57-17.24 54.68-17.24L54.68-17.24Q52.16-17.24 50.64-15.58Q49.12-13.92 49.12-10.84L49.12-10.84L49.12 0L44.12 0L44.12-11.60Q44.12-14.40 42.88-15.82Q41.64-17.24 39.32-17.24L39.32-17.24Q36.76-17.24 35.26-15.60Q33.76-13.96 33.76-10.84L33.76-10.84L33.76 0L28.76 0L28.76-21.36L33.52-21.36L33.52-18.64Q34.72-20.08 36.52-20.84Q38.32-21.60 40.52-21.60L40.52-21.60Q42.92-21.60 44.78-20.70Q46.64-19.80 47.72-18.04L47.72-18.04Q49.04-19.72 51.12-20.66Q53.20-21.60 55.72-21.60L55.72-21.60Z M81.88 0.28Q78.64 0.28 76.04-1.12Q73.44-2.52 71.98-5.02Q70.52-7.52 70.52-10.68L70.52-10.68Q70.52-13.84 71.98-16.32Q73.44-18.80 76.04-20.20Q78.64-21.60 81.88-21.60L81.88-21.60Q85.16-21.60 87.76-20.20Q90.36-18.80 91.82-16.32Q93.28-13.84 93.28-10.68L93.28-10.68Q93.28-7.52 91.82-5.02Q90.36-2.52 87.76-1.12Q85.16 0.28 81.88 0.28L81.88 0.28ZM81.88-4Q84.64-4 86.44-5.84Q88.24-7.68 88.24-10.68L88.24-10.68Q88.24-13.68 86.44-15.52Q84.64-17.36 81.88-17.36L81.88-17.36Q79.12-17.36 77.34-15.52Q75.56-13.68 75.56-10.68L75.56-10.68Q75.56-7.68 77.34-5.84Q79.12-4 81.88-4L81.88-4Z M104.04-18.24Q106.20-21.60 111.64-21.60L111.64-21.60L111.64-16.84Q111-16.96 110.48-16.96L110.48-16.96Q107.56-16.96 105.92-15.26Q104.28-13.56 104.28-10.36L104.28-10.36L104.28 0L99.28 0L99.28-21.36L104.04-21.36L104.04-18.24Z M144.72-21.36L149.52-21.36L139.52 1.72Q138.12 5.20 136.12 6.62Q134.12 8.04 131.28 8.04L131.28 8.04Q129.68 8.04 128.12 7.52Q126.56 7 125.56 6.08L125.56 6.08L127.56 2.40Q128.28 3.08 129.26 3.48Q130.24 3.88 131.24 3.88L131.24 3.88Q132.56 3.88 133.42 3.20Q134.28 2.52 135 0.92L135 0.92L135.36 0.08L126.04-21.36L131.24-21.36L137.96-5.56L144.72-21.36Z M175.88 0.28Q172.56 0.28 169.92-1.12Q167.28-2.52 165.80-5.02Q164.32-7.52 164.32-10.68L164.32-10.68Q164.32-13.84 165.80-16.32Q167.28-18.80 169.90-20.20Q172.52-21.60 175.88-21.60L175.88-21.60Q179.04-21.60 181.42-20.32Q183.80-19.04 185.00-16.64L185.00-16.64L181.16-14.40Q180.24-15.88 178.86-16.62Q177.48-17.36 175.84-17.36L175.84-17.36Q173.04-17.36 171.20-15.54Q169.36-13.72 169.36-10.68L169.36-10.68Q169.36-7.64 171.18-5.82Q173.00-4 175.84-4L175.84-4Q177.48-4 178.86-4.74Q180.24-5.48 181.16-6.96L181.16-6.96L185.00-4.72Q183.76-2.32 181.38-1.02Q179.00 0.28 175.88 0.28L175.88 0.28Z M206.20-21.36L211.20-21.36L211.20 0L206.44 0L206.44-2.72Q205.24-1.28 203.44-0.50Q201.64 0.28 199.56 0.28L199.56 0.28Q195.28 0.28 192.82-2.10Q190.36-4.48 190.36-9.16L190.36-9.16L190.36-21.36L195.36-21.36L195.36-9.84Q195.36-6.96 196.66-5.54Q197.96-4.12 200.36-4.12L200.36-4.12Q203.04-4.12 204.62-5.78Q206.20-7.44 206.20-10.56L206.20-10.56L206.20-21.36Z M218.96 0L218.96-21.36L223.96-21.36L223.96 0L218.96 0ZM221.48-24.88Q220.12-24.88 219.20-25.74Q218.28-26.60 218.28-27.88L218.28-27.88Q218.28-29.16 219.20-30.02Q220.12-30.88 221.48-30.88L221.48-30.88Q222.84-30.88 223.76-30.06Q224.68-29.24 224.68-28L224.68-28Q224.68-26.68 223.78-25.78Q222.88-24.88 221.48-24.88L221.48-24.88Z M247.64-29.68L252.64-29.68L252.64 0L247.84 0L247.84-2.76Q246.60-1.24 244.78-0.48Q242.96 0.28 240.76 0.28L240.76 0.28Q237.68 0.28 235.22-1.08Q232.76-2.44 231.36-4.94Q229.96-7.44 229.96-10.68L229.96-10.68Q229.96-13.92 231.36-16.40Q232.76-18.88 235.22-20.24Q237.68-21.60 240.76-21.60L240.76-21.60Q242.88-21.60 244.64-20.88Q246.40-20.16 247.64-18.72L247.64-18.72L247.64-29.68ZM241.36-4Q243.16-4 244.60-4.82Q246.04-5.64 246.88-7.16Q247.72-8.68 247.72-10.68L247.72-10.68Q247.72-12.68 246.88-14.20Q246.04-15.72 244.60-16.54Q243.16-17.36 241.36-17.36L241.36-17.36Q239.56-17.36 238.12-16.54Q236.68-15.72 235.84-14.20Q235.00-12.68 235.00-10.68L235.00-10.68Q235.00-8.68 235.84-7.16Q236.68-5.64 238.12-4.82Q239.56-4 241.36-4L241.36-4Z M268.56-21.60Q273.28-21.60 275.78-19.34Q278.28-17.08 278.28-12.52L278.28-12.52L278.28 0L273.56 0L273.56-2.60Q272.64-1.20 270.94-0.46Q269.24 0.28 266.84 0.28L266.84 0.28Q264.44 0.28 262.64-0.54Q260.84-1.36 259.86-2.82Q258.88-4.28 258.88-6.12L258.88-6.12Q258.88-9 261.02-10.74Q263.16-12.48 267.76-12.48L267.76-12.48L273.28-12.48L273.28-12.80Q273.28-15.04 271.94-16.24Q270.60-17.44 267.96-17.44L267.96-17.44Q266.16-17.44 264.42-16.88Q262.68-16.32 261.48-15.32L261.48-15.32L259.52-18.96Q261.20-20.24 263.56-20.92Q265.92-21.60 268.56-21.60L268.56-21.60ZM267.88-3.36Q269.76-3.36 271.22-4.22Q272.68-5.08 273.28-6.68L273.28-6.68L273.28-9.16L268.12-9.16Q263.80-9.16 263.80-6.32L263.80-6.32Q263.80-4.96 264.88-4.16Q265.96-3.36 267.88-3.36L267.88-3.36Z M302.00-29.68L307.00-29.68L307.00 0L302.20 0L302.20-2.76Q300.96-1.24 299.14-0.48Q297.32 0.28 295.12 0.28L295.12 0.28Q292.04 0.28 289.58-1.08Q287.12-2.44 285.72-4.94Q284.32-7.44 284.32-10.68L284.32-10.68Q284.32-13.92 285.72-16.40Q287.12-18.88 289.58-20.24Q292.04-21.60 295.12-21.60L295.12-21.60Q297.24-21.60 299.00-20.88Q300.76-20.16 302.00-18.72L302.00-18.72L302.00-29.68ZM295.72-4Q297.52-4 298.96-4.82Q300.40-5.64 301.24-7.16Q302.08-8.68 302.08-10.68L302.08-10.68Q302.08-12.68 301.24-14.20Q300.40-15.72 298.96-16.54Q297.52-17.36 295.72-17.36L295.72-17.36Q293.92-17.36 292.48-16.54Q291.04-15.72 290.20-14.20Q289.36-12.68 289.36-10.68L289.36-10.68Q289.36-8.68 290.20-7.16Q291.04-5.64 292.48-4.82Q293.92-4 295.72-4L295.72-4Z M324.36 0.28Q321.12 0.28 318.52-1.12Q315.92-2.52 314.46-5.02Q313.00-7.52 313.00-10.68L313.00-10.68Q313.00-13.84 314.46-16.32Q315.92-18.80 318.52-20.20Q321.12-21.60 324.36-21.60L324.36-21.60Q327.64-21.60 330.24-20.20Q332.84-18.80 334.30-16.32Q335.76-13.84 335.76-10.68L335.76-10.68Q335.76-7.52 334.30-5.02Q332.84-2.52 330.24-1.12Q327.64 0.28 324.36 0.28L324.36 0.28ZM324.36-4Q327.12-4 328.92-5.84Q330.72-7.68 330.72-10.68L330.72-10.68Q330.72-13.68 328.92-15.52Q327.12-17.36 324.36-17.36L324.36-17.36Q321.60-17.36 319.82-15.52Q318.04-13.68 318.04-10.68L318.04-10.68Q318.04-7.68 319.82-5.84Q321.60-4 324.36-4L324.36-4Z M362.16-21.60Q366.88-21.60 369.38-19.34Q371.88-17.08 371.88-12.52L371.88-12.52L371.88 0L367.16 0L367.16-2.60Q366.24-1.20 364.54-0.46Q362.84 0.28 360.44 0.28L360.44 0.28Q358.04 0.28 356.24-0.54Q354.44-1.36 353.46-2.82Q352.48-4.28 352.48-6.12L352.48-6.12Q352.48-9 354.62-10.74Q356.76-12.48 361.36-12.48L361.36-12.48L366.88-12.48L366.88-12.80Q366.88-15.04 365.54-16.24Q364.20-17.44 361.56-17.44L361.56-17.44Q359.76-17.44 358.02-16.88Q356.28-16.32 355.08-15.32L355.08-15.32L353.12-18.96Q354.80-20.24 357.16-20.92Q359.52-21.60 362.16-21.60L362.16-21.60ZM361.48-3.36Q363.36-3.36 364.82-4.22Q366.28-5.08 366.88-6.68L366.88-6.68L366.88-9.16L361.72-9.16Q357.40-9.16 357.40-6.32L357.40-6.32Q357.40-4.96 358.48-4.16Q359.56-3.36 361.48-3.36L361.48-3.36Z M403.16-4.72L404.56-1.16Q403.68-0.44 402.42-0.08Q401.16 0.28 399.76 0.28L399.76 0.28Q396.24 0.28 394.32-1.56Q392.40-3.40 392.40-6.92L392.40-6.92L392.40-17.20L388.88-17.20L388.88-21.20L392.40-21.20L392.40-26.08L397.40-26.08L397.40-21.20L403.12-21.20L403.12-17.20L397.40-17.20L397.40-7.04Q397.40-5.48 398.16-4.66Q398.92-3.84 400.36-3.84L400.36-3.84Q402.04-3.84 403.16-4.72L403.16-4.72Z M425.56-21.36L430.56-21.36L430.56 0L425.80 0L425.80-2.72Q424.60-1.28 422.80-0.50Q421.00 0.28 418.92 0.28L418.92 0.28Q414.64 0.28 412.18-2.10Q409.72-4.48 409.72-9.16L409.72-9.16L409.72-21.36L414.72-21.36L414.72-9.84Q414.72-6.96 416.02-5.54Q417.32-4.12 419.72-4.12L419.72-4.12Q422.40-4.12 423.98-5.78Q425.56-7.44 425.56-10.56L425.56-10.56L425.56-21.36Z M477.52-21.60Q481.56-21.60 483.92-19.26Q486.28-16.92 486.28-12.24L486.28-12.24L486.28 0L481.28 0L481.28-11.60Q481.28-14.40 480.04-15.82Q478.80-17.24 476.48-17.24L476.48-17.24Q473.96-17.24 472.44-15.58Q470.92-13.92 470.92-10.84L470.92-10.84L470.92 0L465.92 0L465.92-11.60Q465.92-14.40 464.68-15.82Q463.44-17.24 461.12-17.24L461.12-17.24Q458.56-17.24 457.06-15.60Q455.56-13.96 455.56-10.84L455.56-10.84L455.56 0L450.56 0L450.56-21.36L455.32-21.36L455.32-18.64Q456.52-20.08 458.32-20.84Q460.12-21.60 462.32-21.60L462.32-21.60Q464.72-21.60 466.58-20.70Q468.44-19.80 469.52-18.04L469.52-18.04Q470.84-19.72 472.92-20.66Q475-21.60 477.52-21.60L477.52-21.60Z M502.04-21.60Q506.76-21.60 509.26-19.34Q511.76-17.08 511.76-12.52L511.76-12.52L511.76 0L507.04 0L507.04-2.60Q506.12-1.20 504.42-0.46Q502.72 0.28 500.32 0.28L500.32 0.28Q497.92 0.28 496.12-0.54Q494.32-1.36 493.34-2.82Q492.36-4.28 492.36-6.12L492.36-6.12Q492.36-9 494.50-10.74Q496.64-12.48 501.24-12.48L501.24-12.48L506.76-12.48L506.76-12.80Q506.76-15.04 505.42-16.24Q504.08-17.44 501.44-17.44L501.44-17.44Q499.64-17.44 497.90-16.88Q496.16-16.32 494.96-15.32L494.96-15.32L493.00-18.96Q494.68-20.24 497.04-20.92Q499.40-21.60 502.04-21.60L502.04-21.60ZM501.36-3.36Q503.24-3.36 504.70-4.22Q506.16-5.08 506.76-6.68L506.76-6.68L506.76-9.16L501.60-9.16Q497.28-9.16 497.28-6.32L497.28-6.32Q497.28-4.96 498.36-4.16Q499.44-3.36 501.36-3.36L501.36-3.36Z M525.96 0.28Q523.36 0.28 520.88-0.40Q518.40-1.08 516.92-2.12L516.92-2.12L518.84-5.92Q520.28-4.96 522.30-4.38Q524.32-3.80 526.28-3.80L526.28-3.80Q530.76-3.80 530.76-6.16L530.76-6.16Q530.76-7.28 529.62-7.72Q528.48-8.16 525.96-8.56L525.96-8.56Q523.32-8.96 521.66-9.48Q520-10 518.78-11.30Q517.56-12.60 517.56-14.92L517.56-14.92Q517.56-17.96 520.10-19.78Q522.64-21.60 526.96-21.60L526.96-21.60Q529.16-21.60 531.36-21.10Q533.56-20.60 534.96-19.76L534.96-19.76L533.04-15.96Q530.32-17.56 526.92-17.56L526.92-17.56Q524.72-17.56 523.58-16.90Q522.44-16.24 522.44-15.16L522.44-15.16Q522.44-13.96 523.66-13.46Q524.88-12.96 527.44-12.52L527.44-12.52Q530-12.12 531.64-11.60Q533.28-11.08 534.46-9.84Q535.64-8.60 535.64-6.32L535.64-6.32Q535.64-3.32 533.04-1.52Q530.44 0.28 525.96 0.28L525.96 0.28Z M550.96 0.28Q547.64 0.28 545.00-1.12Q542.36-2.52 540.88-5.02Q539.40-7.52 539.40-10.68L539.40-10.68Q539.40-13.84 540.88-16.32Q542.36-18.80 544.98-20.20Q547.60-21.60 550.96-21.60L550.96-21.60Q554.12-21.60 556.50-20.32Q558.88-19.04 560.08-16.64L560.08-16.64L556.24-14.40Q555.32-15.88 553.94-16.62Q552.56-17.36 550.92-17.36L550.92-17.36Q548.12-17.36 546.28-15.54Q544.44-13.72 544.44-10.68L544.44-10.68Q544.44-7.64 546.26-5.82Q548.08-4 550.92-4L550.92-4Q552.56-4 553.94-4.74Q555.32-5.48 556.24-6.96L556.24-6.96L560.08-4.72Q558.84-2.32 556.46-1.02Q554.08 0.28 550.96 0.28L550.96 0.28Z M574.88 0.28Q571.64 0.28 569.04-1.12Q566.44-2.52 564.98-5.02Q563.52-7.52 563.52-10.68L563.52-10.68Q563.52-13.84 564.98-16.32Q566.44-18.80 569.04-20.20Q571.64-21.60 574.88-21.60L574.88-21.60Q578.16-21.60 580.76-20.20Q583.36-18.80 584.82-16.32Q586.28-13.84 586.28-10.68L586.28-10.68Q586.28-7.52 584.82-5.02Q583.36-2.52 580.76-1.12Q578.16 0.28 574.88 0.28L574.88 0.28ZM574.88-4Q577.64-4 579.44-5.84Q581.24-7.68 581.24-10.68L581.24-10.68Q581.24-13.68 579.44-15.52Q577.64-17.36 574.88-17.36L574.88-17.36Q572.12-17.36 570.34-15.52Q568.56-13.68 568.56-10.68L568.56-10.68Q568.56-7.68 570.34-5.84Q572.12-4 574.88-4L574.88-4Z M603.72-4.72L605.12-1.16Q604.24-0.44 602.98-0.08Q601.72 0.28 600.32 0.28L600.32 0.28Q596.80 0.28 594.88-1.56Q592.96-3.40 592.96-6.92L592.96-6.92L592.96-17.20L589.44-17.20L589.44-21.20L592.96-21.20L592.96-26.08L597.96-26.08L597.96-21.20L603.68-21.20L603.68-17.20L597.96-17.20L597.96-7.04Q597.96-5.48 598.72-4.66Q599.48-3.84 600.92-3.84L600.92-3.84Q602.60-3.84 603.72-4.72L603.72-4.72Z M618.60-21.60Q623.32-21.60 625.82-19.34Q628.32-17.08 628.32-12.52L628.32-12.52L628.32 0L623.60 0L623.60-2.60Q622.68-1.20 620.98-0.46Q619.28 0.28 616.88 0.28L616.88 0.28Q614.48 0.28 612.68-0.54Q610.88-1.36 609.90-2.82Q608.92-4.28 608.92-6.12L608.92-6.12Q608.92-9 611.06-10.74Q613.20-12.48 617.80-12.48L617.80-12.48L623.32-12.48L623.32-12.80Q623.32-15.04 621.98-16.24Q620.64-17.44 618.00-17.44L618.00-17.44Q616.20-17.44 614.46-16.88Q612.72-16.32 611.52-15.32L611.52-15.32L609.56-18.96Q611.24-20.24 613.60-20.92Q615.96-21.60 618.60-21.60L618.60-21.60ZM617.92-3.36Q619.80-3.36 621.26-4.22Q622.72-5.08 623.32-6.68L623.32-6.68L623.32-9.16L618.16-9.16Q613.84-9.16 613.84-6.32L613.84-6.32Q613.84-4.96 614.92-4.16Q616.00-3.36 617.92-3.36L617.92-3.36Z"/></g>
</svg>
</g><g opacity="1" transform="rotate(0 959.2526 546.6331)">
<svg width="377.654" height="70" x="959.2526" y="546.6331" version="1.1" preserveAspectRatio="none" viewBox="1.56 -28.48 156.24 28.96">
  <g transform="matrix(1 0 0 1 0 0)" class="companyName"><path id="id-D6z1nYkh6" d="M17.76-22.80L12.92-22.80L12.92-5.20L17.76-5.20L17.76 0L1.56 0L1.56-5.20L6.44-5.20L6.44-22.80L1.56-22.80L1.56-28L17.76-28L17.76-22.80Z M22.64 0L22.64-28L35.36-28Q39.92-28 43.42-26.26Q46.92-24.52 48.86-21.36Q50.80-18.20 50.80-14L50.80-14Q50.80-9.80 48.86-6.64Q46.92-3.48 43.42-1.74Q39.92 0 35.36 0L35.36 0L22.64 0ZM29.12-5.32L35.04-5.32Q39.24-5.32 41.74-7.66Q44.24-10 44.24-14L44.24-14Q44.24-18 41.74-20.34Q39.24-22.68 35.04-22.68L35.04-22.68L29.12-22.68L29.12-5.32Z M67.80-28Q71.52-28 74.26-26.76Q77-25.52 78.48-23.24Q79.96-20.96 79.96-17.84L79.96-17.84Q79.96-14.76 78.48-12.46Q77-10.16 74.26-8.94Q71.52-7.72 67.80-7.72L67.80-7.72L62.16-7.72L62.16 0L55.68 0L55.68-28L67.80-28ZM67.44-13Q70.36-13 71.88-14.26Q73.40-15.52 73.40-17.84L73.40-17.84Q73.40-20.20 71.88-21.46Q70.36-22.72 67.44-22.72L67.44-22.72L62.16-22.72L62.16-13L67.44-13Z M105.64-7.28L107.64-2.40Q105.64-1.04 102.62-0.28Q99.60 0.48 96.20 0.48L96.20 0.48Q91.96 0.48 89-0.58Q86.04-1.64 84.52-3.54Q83-5.44 83-7.88L83-7.88Q83-10.12 84.24-11.84Q85.48-13.56 87.64-14.40L87.64-14.40Q86-15.28 85.10-16.80Q84.20-18.32 84.20-20.20L84.20-20.20Q84.20-22.48 85.60-24.36Q87-26.24 89.84-27.36Q92.68-28.48 96.80-28.48L96.80-28.48Q99.52-28.48 102.12-27.94Q104.72-27.40 106.64-26.48L106.64-26.48L104.84-21.52Q101.16-23.24 97.04-23.24L97.04-23.24Q93.92-23.24 92.34-22.30Q90.76-21.36 90.76-19.76L90.76-19.76Q90.76-18.28 91.82-17.50Q92.88-16.72 95.04-16.72L95.04-16.72L102.68-16.72L102.68-11.60L94.64-11.60Q92.20-11.60 90.88-10.76Q89.56-9.92 89.56-8.32L89.56-8.32Q89.56-6.64 91.26-5.70Q92.96-4.76 96.48-4.76L96.48-4.76Q98.96-4.76 101.44-5.42Q103.92-6.08 105.64-7.28L105.64-7.28Z M133.80-25L131.60-20.16Q128-22.24 123.88-22.84L123.88-22.84L123.88 0L117.40 0L117.40-22.84Q113.28-22.24 109.64-20.16L109.64-20.16L107.44-25Q110.32-26.72 113.68-27.60Q117.04-28.48 120.60-28.48L120.60-28.48Q124.20-28.48 127.58-27.60Q130.96-26.72 133.80-25L133.80-25Z M145.92 0.48Q142.60 0.48 139.50-0.42Q136.40-1.32 134.52-2.76L134.52-2.76L136.72-7.64Q138.52-6.32 141-5.52Q143.48-4.72 145.96-4.72L145.96-4.72Q148.72-4.72 150.04-5.54Q151.36-6.36 151.36-7.72L151.36-7.72Q151.36-8.72 150.58-9.38Q149.80-10.04 148.58-10.44Q147.36-10.84 145.28-11.32L145.28-11.32Q142.08-12.08 140.04-12.84Q138-13.60 136.54-15.28Q135.08-16.96 135.08-19.76L135.08-19.76Q135.08-22.20 136.40-24.18Q137.72-26.16 140.38-27.32Q143.04-28.48 146.88-28.48L146.88-28.48Q149.56-28.48 152.12-27.84Q154.68-27.20 156.60-26L156.60-26L154.60-21.08Q150.72-23.28 146.84-23.28L146.84-23.28Q144.12-23.28 142.82-22.40Q141.52-21.52 141.52-20.08L141.52-20.08Q141.52-18.64 143.02-17.94Q144.52-17.24 147.60-16.56L147.60-16.56Q150.80-15.80 152.84-15.04Q154.88-14.28 156.34-12.64Q157.80-11 157.80-8.20L157.80-8.20Q157.80-5.80 156.46-3.82Q155.12-1.84 152.44-0.68Q149.76 0.48 145.92 0.48L145.92 0.48Z"/></g>
</svg>
</g></svg></svg>