<?xml version="1.0" encoding="UTF-8"?>
<svg xmlns="http://www.w3.org/2000/svg" xmlns:xlink="http://www.w3.org/1999/xlink" width="180px" height="120px" viewBox="0 0 179 120" version="1.1">
<g id="surface1">
<path style=" stroke:none;fill-rule:nonzero;fill:rgb(0%,0%,0%);fill-opacity:1;" d="M 86.597656 10.957031 C 86.453125 11.054688 85.871094 11.105469 85.316406 11.078125 L 84.300781 11.003906 L 85.269531 11.296875 L 86.210938 11.613281 L 85.4375 11.761719 C 84.855469 11.882812 84.640625 12.054688 84.6875 12.34375 C 84.78125 13.390625 84.660156 13.636719 84.058594 13.636719 C 83.527344 13.636719 83.453125 13.734375 83.453125 14.585938 C 83.453125 15.511719 83.429688 15.535156 82.484375 15.632812 C 81.953125 15.683594 81.398438 15.609375 81.273438 15.488281 C 81.105469 15.316406 81.035156 15.632812 81.035156 16.386719 L 81.035156 17.53125 L 82.121094 17.53125 C 83.140625 17.53125 83.210938 17.484375 83.210938 16.851562 L 83.234375 16.191406 L 83.546875 16.921875 L 83.863281 17.65625 L 84.058594 16.972656 C 84.25 16.21875 84.660156 16.09375 84.660156 16.777344 C 84.660156 17.921875 84.46875 18.042969 82.824219 17.875 L 81.273438 17.703125 L 81.273438 18.457031 C 81.273438 19.042969 81.132812 19.238281 80.621094 19.433594 C 80.238281 19.554688 79.679688 19.890625 79.363281 20.1875 C 78.710938 20.746094 77.429688 21.183594 76.316406 21.183594 C 75.226562 21.183594 74.9375 21.476562 74.988281 22.546875 C 75.085938 24.398438 74.988281 24.8125 74.527344 24.957031 C 74.285156 25.03125 73.992188 25.347656 73.898438 25.640625 C 73.753906 26.152344 73.753906 26.152344 73.5625 25.691406 C 73.363281 25.226562 73.363281 25.226562 73.195312 25.738281 C 73.097656 26.054688 72.929688 26.296875 72.832031 26.296875 C 72.714844 26.296875 72.566406 26.832031 72.46875 27.492188 C 72.398438 28.148438 72.109375 28.953125 71.84375 29.292969 C 71.308594 29.976562 71.238281 30.707031 71.601562 31.4375 C 71.792969 31.753906 71.746094 32.289062 71.480469 33.335938 C 71.285156 34.113281 71.117188 35.285156 71.117188 35.917969 L 71.117188 37.0625 L 70.222656 36.964844 C 69.714844 36.890625 69.132812 36.765625 68.914062 36.671875 C 68.648438 36.550781 68.285156 36.765625 67.730469 37.355469 C 67.296875 37.816406 66.640625 38.234375 66.253906 38.28125 C 65.625 38.375 65.554688 38.328125 65.671875 37.890625 C 65.820312 37.425781 65.792969 37.402344 65.480469 37.792969 C 65.289062 38.058594 64.972656 38.15625 64.632812 38.058594 C 64.078125 37.9375 62.433594 38.570312 62.117188 39.058594 C 62.019531 39.203125 61.972656 39.472656 62.046875 39.640625 C 62.117188 39.8125 62.066406 39.910156 61.972656 39.839844 C 61.730469 39.691406 60.496094 40.984375 60.058594 41.808594 C 59.722656 42.46875 59.890625 43.878906 60.230469 43.320312 C 60.351562 43.148438 60.351562 42.859375 60.277344 42.636719 C 60.15625 42.296875 60.183594 42.296875 60.523438 42.613281 C 60.8125 42.878906 60.835938 43.101562 60.667969 43.464844 C 60.496094 43.808594 60.496094 43.878906 60.667969 43.707031 C 60.8125 43.5625 60.957031 43.296875 61.003906 43.101562 C 61.054688 42.90625 61.320312 42.542969 61.632812 42.296875 C 61.925781 42.054688 62.09375 41.738281 62.019531 41.589844 C 61.902344 41.421875 61.972656 41.394531 62.140625 41.515625 C 62.3125 41.613281 62.675781 41.496094 62.964844 41.203125 C 64.078125 40.203125 66.324219 39.886719 67.828125 40.515625 C 69.90625 41.394531 72.519531 44.828125 73.609375 48.140625 C 75.421875 53.667969 74.839844 59.125 72.183594 61.316406 C 69.957031 63.167969 66.933594 63.261719 63.761719 61.609375 C 62.457031 60.925781 61.925781 60.734375 62.167969 61.023438 C 62.503906 61.460938 62.480469 61.460938 61.972656 61.023438 C 61.417969 60.535156 61.222656 59.976562 61.730469 60.292969 C 61.902344 60.390625 61.925781 60.363281 61.828125 60.171875 C 61.730469 60 61.441406 59.953125 61.152344 60.046875 C 60.714844 60.171875 60.6875 60.144531 60.957031 59.660156 C 61.171875 59.246094 61.171875 59.148438 60.957031 59.292969 C 60.789062 59.390625 60.714844 59.34375 60.738281 59.148438 C 60.789062 58.953125 60.546875 58.320312 60.230469 57.710938 C 59.625 56.589844 59.601562 56.46875 59.527344 55.933594 C 59.507812 55.738281 59.433594 55.761719 59.261719 56.003906 C 59.070312 56.296875 59.023438 56.25 59.042969 55.761719 C 59.070312 55.421875 59.070312 54.886719 59.042969 54.546875 C 58.996094 53.984375 58.976562 53.984375 58.777344 54.421875 C 58.683594 54.691406 58.632812 53.621094 58.707031 51.988281 C 58.804688 49.433594 59.164062 47.191406 59.675781 45.875 C 59.773438 45.609375 59.722656 45.511719 59.578125 45.609375 C 59.410156 45.734375 59.359375 45.609375 59.433594 45.339844 C 59.507812 45.046875 59.410156 44.878906 59.164062 44.878906 C 58.949219 44.878906 58.777344 45 58.777344 45.144531 C 58.777344 45.292969 58.660156 45.246094 58.511719 45.046875 C 58.320312 44.78125 58.296875 44.925781 58.34375 45.707031 C 58.394531 46.265625 58.34375 46.65625 58.246094 46.609375 C 58.128906 46.535156 58.054688 46.730469 58.054688 46.996094 C 58.054688 47.484375 57.59375 48.554688 56.503906 50.527344 C 56.289062 50.917969 56 51.550781 55.828125 51.917969 C 55.636719 52.378906 55.34375 52.597656 54.980469 52.597656 C 54.667969 52.597656 54.425781 52.5 54.425781 52.355469 C 54.425781 52.234375 54.039062 51.964844 53.578125 51.765625 C 53.117188 51.574219 52.730469 51.234375 52.730469 51.039062 C 52.730469 50.820312 52.632812 50.648438 52.492188 50.648438 C 52.367188 50.648438 52.25 50.746094 52.25 50.890625 C 52.25 51.015625 52.03125 51.136719 51.765625 51.136719 C 51.453125 51.136719 51.28125 51.308594 51.28125 51.625 C 51.28125 51.941406 51.453125 52.109375 51.765625 52.109375 C 52.082031 52.109375 52.25 52.28125 52.25 52.597656 C 52.25 53.011719 52.417969 53.082031 53.214844 53.082031 C 53.746094 53.082031 54.183594 53.183594 54.183594 53.328125 C 54.183594 53.449219 54.351562 53.570312 54.570312 53.570312 C 54.765625 53.570312 55.105469 53.742188 55.296875 53.9375 C 55.78125 54.398438 56.121094 54.398438 56.121094 53.910156 C 56.121094 53.71875 56.238281 53.621094 56.359375 53.691406 C 56.554688 53.816406 56.53125 53.960938 56.335938 54.203125 C 56.019531 54.59375 54.183594 54.667969 54.183594 54.300781 C 54.183594 54.15625 53.746094 54.058594 53.242188 54.058594 C 52.683594 54.058594 52.25 53.9375 52.175781 53.742188 C 52.101562 53.523438 52.003906 53.523438 51.691406 53.792969 C 51.136719 54.230469 51.1875 54.546875 51.765625 54.546875 C 52.367188 54.546875 52.367188 54.765625 51.835938 55.179688 C 51.234375 55.640625 51.039062 55.59375 51.039062 54.984375 C 51.039062 54.691406 50.96875 54.546875 50.871094 54.621094 C 50.796875 54.714844 50.605469 54.691406 50.433594 54.546875 C 50.289062 54.421875 49.757812 54.375 49.273438 54.472656 C 48.621094 54.570312 48.378906 54.738281 48.378906 55.058594 C 48.378906 55.421875 48.183594 55.515625 47.410156 55.515625 C 46.878906 55.515625 46.445312 55.617188 46.445312 55.761719 C 46.445312 56.105469 44.242188 56.054688 43.445312 55.691406 C 43.03125 55.515625 42.742188 55.15625 42.648438 54.738281 C 42.574219 54.375 42.429688 54.128906 42.308594 54.203125 C 42.183594 54.277344 42.089844 54.203125 42.089844 54.058594 C 42.089844 53.886719 42.28125 53.839844 42.550781 53.9375 C 43.179688 54.128906 43.492188 53.570312 42.984375 53.207031 C 42.402344 52.792969 42.476562 51.890625 43.128906 51.378906 C 43.5625 51.015625 43.613281 50.871094 43.371094 50.625 C 42.984375 50.234375 42.960938 48.773438 43.324219 48.652344 C 43.445312 48.605469 43.492188 48.386719 43.394531 48.140625 C 43.324219 47.898438 43.105469 47.75 42.914062 47.824219 C 42.742188 47.898438 42.550781 47.824219 42.476562 47.65625 C 42.429688 47.484375 42.355469 47.679688 42.355469 48.09375 C 42.332031 48.554688 42.257812 48.726562 42.136719 48.503906 C 41.871094 48.117188 41.195312 50.917969 40.832031 53.765625 C 40.6875 55.007812 40.636719 58.320312 40.710938 61.730469 C 40.804688 66.941406 40.878906 67.863281 41.4375 70.25 C 43.324219 78.167969 45.671875 83.523438 49.589844 88.757812 C 51.378906 91.167969 53.917969 94.066406 55.734375 95.769531 C 56.410156 96.40625 56.84375 96.917969 56.722656 96.917969 C 56.457031 96.917969 55.222656 95.84375 53.53125 94.1875 C 52.949219 93.628906 52.492188 93.261719 52.492188 93.359375 C 52.492188 93.457031 52.273438 93.410156 52.003906 93.261719 C 51.738281 93.117188 51.570312 92.898438 51.644531 92.75 C 51.816406 92.507812 51.1875 91.753906 50.96875 91.949219 C 50.917969 92.019531 50.386719 91.484375 49.808594 90.78125 C 48.402344 89.050781 47.726562 88.417969 47.507812 88.613281 C 47.410156 88.683594 47.410156 88.613281 47.507812 88.464844 C 47.605469 88.296875 47.289062 87.660156 46.757812 86.984375 C 46.25 86.324219 45.671875 85.542969 45.472656 85.226562 C 45.28125 84.933594 44.941406 84.519531 44.75 84.300781 C 44.386719 83.910156 44.363281 83.839844 44.292969 83.082031 C 44.265625 82.746094 44.21875 82.71875 44.027344 83.035156 C 43.828125 83.351562 43.761719 83.328125 43.417969 82.914062 C 43.082031 82.453125 43.082031 82.476562 43.347656 83.15625 C 43.515625 83.546875 44.195312 84.8125 44.824219 85.957031 C 49.589844 94.359375 58.707031 102.808594 67.582031 107.046875 C 68.601562 107.53125 69.351562 108.015625 69.277344 108.140625 C 69.207031 108.261719 68.625 108.359375 67.996094 108.359375 C 66.472656 108.359375 64.175781 108.796875 63.277344 109.261719 C 62.601562 109.625 62.578125 109.652344 63.011719 109.96875 C 65.164062 111.550781 74.722656 112.5 90.175781 112.671875 C 108.148438 112.863281 121.308594 111.816406 123.703125 109.941406 C 124.988281 108.945312 122.90625 108.238281 117.558594 107.875 C 115.359375 107.726562 112.941406 107.582031 112.1875 107.558594 C 110.617188 107.53125 110.59375 107.558594 113.570312 105.925781 C 117.945312 103.539062 122.6875 100.03125 126.339844 96.453125 C 134.105469 88.859375 139.183594 78.824219 140.804688 67.839844 C 141.410156 63.824219 141.503906 56.859375 141.046875 52.964844 C 139.546875 40.445312 132.507812 28.148438 122.15625 19.84375 C 119.324219 17.582031 118.019531 16.800781 117.511719 17.070312 C 117.269531 17.191406 117.074219 17.214844 117.074219 17.121094 C 117.074219 17.019531 116.933594 17.121094 116.734375 17.339844 C 116.46875 17.726562 116.277344 17.679688 114.316406 16.730469 C 113.15625 16.167969 112.285156 15.609375 112.382812 15.511719 C 112.503906 15.390625 112.40625 15.390625 112.1875 15.464844 C 111.96875 15.558594 111.535156 15.464844 111.222656 15.246094 C 110.449219 14.734375 105.949219 13.003906 103.894531 12.417969 C 100.53125 11.46875 96.128906 10.910156 91.410156 10.835938 C 88.917969 10.8125 86.765625 10.859375 86.597656 10.957031 Z M 84.492188 23.234375 C 86.1875 23.9375 88.265625 27.417969 89.28125 31.292969 C 89.984375 33.894531 90.03125 38.425781 89.40625 40.515625 C 88.363281 44 86.285156 46.753906 84.058594 47.609375 C 82.679688 48.140625 80.574219 47.996094 79.125 47.265625 C 78.128906 46.753906 77.480469 46.777344 77.792969 47.289062 C 77.890625 47.457031 77.839844 47.484375 77.671875 47.386719 C 77.453125 47.238281 77.453125 47.121094 77.671875 46.851562 C 77.890625 46.582031 77.816406 46.460938 77.332031 46.292969 C 77.015625 46.167969 76.511719 45.753906 76.21875 45.390625 C 75.953125 45.023438 75.710938 44.804688 75.710938 44.878906 C 75.710938 44.953125 75.640625 45.21875 75.566406 45.464844 C 75.472656 45.78125 75.492188 45.804688 75.664062 45.582031 C 75.855469 45.316406 75.90625 45.316406 76.027344 45.609375 C 76.195312 46.070312 75.273438 46.023438 74.988281 45.535156 C 74.625 44.953125 74.671875 44.441406 75.085938 44.78125 C 75.324219 45 75.445312 44.976562 75.542969 44.707031 C 75.710938 44.292969 75.371094 44 74.648438 43.90625 C 74.332031 43.859375 74.261719 43.929688 74.332031 44.195312 C 74.429688 44.390625 74.378906 44.609375 74.238281 44.707031 C 74.09375 44.804688 74.09375 44.976562 74.285156 45.195312 C 74.429688 45.390625 74.503906 45.609375 74.429688 45.683594 C 74.359375 45.753906 74.164062 45.582031 74.019531 45.292969 C 73.777344 44.855469 73.800781 44.683594 74.042969 44.511719 C 74.285156 44.34375 74.164062 44.316406 73.726562 44.417969 C 73.316406 44.511719 73.050781 44.464844 73.050781 44.316406 C 73.050781 44.171875 73.148438 44.097656 73.269531 44.171875 C 73.390625 44.246094 73.5625 44.148438 73.632812 43.929688 C 73.703125 43.734375 73.679688 43.636719 73.535156 43.707031 C 73.390625 43.78125 73.292969 43.660156 73.292969 43.417969 C 73.292969 43.078125 73.246094 43.050781 73.078125 43.320312 C 72.929688 43.539062 72.738281 43.5625 72.542969 43.441406 C 72.347656 43.320312 72.132812 43.222656 72.035156 43.222656 C 71.964844 43.222656 71.792969 43.148438 71.71875 43.050781 C 71.625 42.953125 71.816406 42.929688 72.15625 42.980469 C 72.640625 43.078125 72.761719 43.003906 72.6875 42.6875 C 72.664062 42.441406 72.496094 42.273438 72.347656 42.320312 C 72.203125 42.34375 72.082031 42.199219 72.082031 42.003906 C 72.082031 41.664062 72.375 41.542969 72.882812 41.613281 C 72.980469 41.613281 73.050781 41.515625 73.050781 41.371094 C 73.050781 41.226562 73.21875 41.175781 73.484375 41.273438 C 73.726562 41.371094 73.800781 41.347656 73.65625 41.203125 C 73.535156 41.078125 73.050781 40.859375 72.589844 40.714844 C 71.816406 40.445312 71.792969 40.445312 71.914062 40.984375 C 71.984375 41.273438 71.890625 41.738281 71.695312 42.003906 C 71.335938 42.46875 71.335938 42.46875 71.453125 41.832031 C 71.503906 41.46875 71.453125 41.078125 71.308594 41.003906 C 71.140625 40.910156 71.117188 40.957031 71.214844 41.105469 C 71.308594 41.273438 71.261719 41.394531 71.117188 41.394531 C 70.972656 41.394531 70.921875 41.542969 71.019531 41.6875 C 71.117188 41.859375 71.089844 41.933594 70.996094 41.832031 C 70.875 41.714844 70.753906 41.394531 70.730469 41.105469 C 70.585938 40.058594 70.488281 39.714844 70.320312 39.546875 C 70.003906 39.230469 70.148438 38.960938 70.609375 38.960938 C 70.898438 38.960938 71.117188 39.15625 71.164062 39.496094 C 71.308594 40.445312 71.769531 40.226562 71.9375 39.15625 C 72.109375 38.183594 72.132812 38.132812 72.46875 38.570312 C 72.785156 39.011719 72.808594 38.984375 72.808594 38.058594 C 72.808594 36.867188 73.171875 36.453125 73.246094 37.574219 C 73.363281 39.058594 73.535156 38.523438 73.535156 36.671875 C 73.535156 33.066406 74.503906 30.144531 76.679688 27.25 C 78.011719 25.445312 78.929688 24.667969 80.9375 23.59375 C 82.433594 22.816406 83.308594 22.71875 84.492188 23.234375 Z M 106.578125 24.546875 C 108.078125 25.347656 109.820312 28.148438 110.421875 30.734375 C 110.886719 32.679688 110.886719 36.648438 110.421875 38.839844 C 109.601562 42.832031 106.578125 47.019531 103.433594 48.578125 C 101.617188 49.484375 99.417969 49.554688 97.726562 48.773438 C 96.078125 48.042969 94.242188 46.121094 93.757812 44.636719 C 92.933594 42.101562 92.835938 37.160156 93.5625 34.699219 C 95.089844 29.609375 99.371094 25.007812 103.289062 24.203125 C 104.621094 23.9375 105.65625 24.035156 106.578125 24.546875 Z M 118.914062 46.242188 C 120.121094 46.800781 121.117188 48.042969 121.574219 49.578125 C 122.035156 51.113281 122.011719 55.03125 121.550781 56.859375 C 120.101562 62.53125 115.550781 66.941406 110.90625 67.160156 C 108.875 67.28125 107.664062 66.988281 106.140625 66.015625 C 104.375 64.871094 103.675781 63.605469 103.554688 61.339844 C 103.457031 59.125 103.894531 57.390625 105.171875 54.933594 C 106.816406 51.792969 111.78125 47.191406 114.65625 46.191406 C 116.105469 45.683594 117.703125 45.683594 118.914062 46.242188 Z M 92.695312 55.8125 C 94.386719 56.589844 95.886719 57.785156 96.539062 58.832031 C 96.78125 59.246094 97.628906 61.023438 98.402344 62.75 C 100.457031 67.355469 101.015625 68.082031 105.320312 71.832031 C 106.769531 73.101562 108.320312 74.609375 108.753906 75.195312 C 110.542969 77.582031 111.269531 81.550781 110.421875 84.640625 C 109.261719 88.976562 105.65625 91.949219 101.207031 92.214844 C 98.910156 92.386719 97.363281 91.996094 94.578125 90.582031 C 91.894531 89.21875 90.007812 88.488281 87.710938 87.929688 C 83.5 86.882812 80.40625 87.003906 74.867188 88.441406 C 72.832031 88.976562 71.355469 89.195312 69.882812 89.21875 C 67.996094 89.246094 67.679688 89.171875 66.203125 88.417969 C 64.320312 87.441406 62.625 85.738281 61.875 84.082031 C 60.8125 81.625 61.054688 77.703125 62.457031 74.878906 C 63.957031 71.90625 66.035156 70.082031 70.851562 67.597656 C 74.429688 65.722656 76.511719 63.996094 78.855469 60.875 C 81.398438 57.515625 82.75 56.421875 85.582031 55.496094 C 87.636719 54.8125 90.832031 54.957031 92.695312 55.8125 Z M 92.695312 55.8125 "/>
</g>
</svg>
