<?xml version="1.0" encoding="UTF-8"?>
<svg xmlns="http://www.w3.org/2000/svg" xmlns:xlink="http://www.w3.org/1999/xlink" width="300px" height="29px" viewBox="0 0 295 29" version="1.1">
<g id="surface1">
<path style=" stroke:none;fill-rule:nonzero;fill:rgb(0%,0%,0%);fill-opacity:1;" d="M 114.542969 7.769531 C 114.542969 11.023438 114.542969 11.023438 112.398438 10.652344 C 110.625 10.28125 110.035156 10.578125 109 12.058594 C 106.707031 15.609375 109 18.496094 113.800781 18.125 L 116.390625 17.976562 L 116.609375 11.171875 C 116.757812 5.546875 116.609375 4.4375 115.648438 4.4375 C 114.835938 4.4375 114.542969 5.253906 114.542969 7.769531 Z M 114.394531 13.613281 C 114.761719 15.535156 112.472656 17.3125 111.070312 16.203125 C 110.035156 15.3125 109.8125 13.167969 110.625 12.28125 C 111.585938 11.320312 114.171875 12.207031 114.394531 13.613281 Z M 114.394531 13.613281 "/>
<path style=" stroke:none;fill-rule:nonzero;fill:rgb(0%,0%,0%);fill-opacity:1;" d="M 139.667969 7.769531 C 139.667969 10.949219 139.59375 11.097656 137.894531 10.652344 C 135.011719 9.988281 133.015625 11.46875 133.015625 14.5 C 133.015625 16.496094 133.386719 17.238281 134.9375 17.902344 C 136.414062 18.570312 137.15625 18.570312 138.261719 17.902344 C 139.222656 17.3125 139.667969 17.238281 139.667969 17.828125 C 139.667969 18.199219 140.035156 18.347656 140.40625 18.125 C 140.847656 17.902344 141.144531 14.722656 141.144531 11.023438 C 141.144531 7.101562 140.847656 4.4375 140.40625 4.4375 C 140.035156 4.4375 139.667969 5.917969 139.667969 7.769531 Z M 138.855469 12.871094 C 140.554688 14.945312 137.597656 17.902344 135.527344 16.203125 C 134.273438 15.164062 134.199219 12.796875 135.453125 12.355469 C 137.082031 11.6875 137.96875 11.835938 138.855469 12.871094 Z M 138.855469 12.871094 "/>
<path style=" stroke:none;fill-rule:nonzero;fill:rgb(0%,0%,0%);fill-opacity:1;" d="M 102.347656 8.136719 C 102.570312 8.507812 103.085938 8.878906 103.53125 8.878906 C 103.898438 8.878906 104.195312 8.507812 104.195312 8.136719 C 104.195312 7.695312 103.679688 7.398438 103.011719 7.398438 C 102.421875 7.398438 102.125 7.695312 102.347656 8.136719 Z M 102.347656 8.136719 "/>
<path style=" stroke:none;fill-rule:nonzero;fill:rgb(0%,0%,0%);fill-opacity:1;" d="M 184.820312 9.027344 C 184.078125 11.171875 184.820312 17.828125 185.851562 17.828125 C 186.296875 17.753906 186.664062 16.421875 186.8125 14.796875 C 186.960938 12.578125 187.40625 11.835938 188.292969 11.835938 C 189.472656 11.761719 189.472656 11.6875 188.292969 10.800781 C 187.550781 10.28125 186.960938 9.246094 186.960938 8.582031 C 186.960938 6.804688 185.558594 7.101562 184.820312 9.027344 Z M 184.820312 9.027344 "/>
<path style=" stroke:none;fill-rule:nonzero;fill:rgb(0%,0%,0%);fill-opacity:1;" d="M 271.945312 8.804688 C 271.945312 9.617188 271.5 10.355469 271.058594 10.578125 C 270.316406 10.875 270.316406 11.097656 271.058594 11.910156 C 271.5 12.429688 271.945312 14.128906 271.945312 15.757812 C 271.945312 17.460938 272.238281 18.421875 272.683594 18.125 C 273.125 17.902344 273.421875 16.347656 273.421875 14.722656 C 273.421875 12.503906 273.71875 11.835938 274.753906 11.835938 C 275.933594 11.761719 275.933594 11.761719 274.753906 10.800781 C 274.011719 10.28125 273.421875 9.246094 273.421875 8.582031 C 273.421875 7.914062 273.125 7.398438 272.683594 7.398438 C 272.3125 7.398438 271.945312 8.0625 271.945312 8.804688 Z M 271.945312 8.804688 "/>
<path style=" stroke:none;fill-rule:nonzero;fill:rgb(0%,0%,0%);fill-opacity:1;" d="M 7.09375 11.761719 C 5.320312 13.6875 5.617188 16.054688 7.832031 17.53125 C 9.386719 18.496094 10.050781 18.570312 11.160156 17.902344 C 12.046875 17.3125 12.5625 17.3125 12.5625 17.753906 C 12.5625 18.125 12.933594 18.496094 13.300781 18.496094 C 13.746094 18.496094 14.039062 16.71875 14.039062 14.574219 L 14.039062 10.652344 L 11.160156 10.578125 C 9.238281 10.503906 7.90625 10.875 7.09375 11.761719 Z M 11.675781 12.722656 C 13.007812 14.054688 12.785156 15.386719 10.9375 16.347656 C 9.605469 17.015625 9.164062 16.941406 8.425781 15.90625 C 6.578125 13.390625 9.53125 10.578125 11.675781 12.722656 Z M 11.675781 12.722656 "/>
<path style=" stroke:none;fill-rule:nonzero;fill:rgb(0%,0%,0%);fill-opacity:1;" d="M 18.695312 11.539062 C 18.105469 13.019531 18.84375 18.125 19.582031 18.125 C 20.027344 18.125 20.46875 17.089844 20.542969 15.90625 C 21.136719 11.171875 23.5 10.503906 23.796875 14.945312 C 24.089844 18.863281 25.421875 19.085938 25.714844 15.3125 C 25.863281 13.835938 26.234375 12.578125 26.675781 12.578125 C 27.046875 12.578125 27.5625 12.578125 27.933594 12.578125 C 28.230469 12.503906 28.597656 13.6875 28.820312 15.164062 C 29.042969 16.644531 29.558594 17.902344 29.929688 17.976562 C 30.964844 18.199219 31.257812 13.6875 30.296875 11.835938 C 29.484375 10.28125 27.046875 9.839844 26.234375 11.097656 C 25.9375 11.539062 25.347656 11.613281 24.902344 11.320312 C 23.574219 10.429688 19.066406 10.652344 18.695312 11.539062 Z M 18.695312 11.539062 "/>
<path style=" stroke:none;fill-rule:nonzero;fill:rgb(0%,0%,0%);fill-opacity:1;" d="M 35.988281 11.6875 C 34.214844 13.6875 34.4375 16.054688 36.578125 17.460938 C 40.570312 20.046875 45.078125 14.722656 41.382812 11.6875 C 39.3125 9.988281 37.539062 9.988281 35.988281 11.6875 Z M 40.570312 13.09375 C 41.382812 14.648438 40.347656 17.015625 38.796875 17.015625 C 38.207031 17.015625 37.390625 16.347656 36.949219 15.460938 C 35.398438 12.722656 39.019531 10.355469 40.570312 13.09375 Z M 40.570312 13.09375 "/>
<path style=" stroke:none;fill-rule:nonzero;fill:rgb(0%,0%,0%);fill-opacity:1;" d="M 46.925781 11.246094 C 46.261719 13.019531 46.777344 18.125 47.664062 18.125 C 48.109375 18.125 48.476562 17.089844 48.625 15.90625 C 48.773438 14.648438 49.585938 13.09375 50.472656 12.429688 C 51.359375 11.761719 51.875 10.949219 51.582031 10.652344 C 51.285156 10.355469 50.546875 10.503906 50.027344 10.949219 C 49.289062 11.613281 48.847656 11.613281 48.179688 10.949219 C 47.589844 10.355469 47.21875 10.429688 46.925781 11.246094 Z M 46.925781 11.246094 "/>
<path style=" stroke:none;fill-rule:nonzero;fill:rgb(0%,0%,0%);fill-opacity:1;" d="M 62.074219 11.097656 C 62.074219 11.539062 62.738281 13.242188 63.625 14.945312 C 64.882812 17.386719 65.03125 18.347656 64.363281 19.679688 C 63.847656 20.863281 63.847656 21.453125 64.363281 21.453125 C 65.25 21.453125 69.613281 11.910156 69.242188 10.800781 C 69.09375 10.355469 68.28125 11.320312 67.394531 12.945312 L 65.917969 15.90625 L 64.734375 13.09375 C 63.625 10.578125 62.074219 9.394531 62.074219 11.097656 Z M 62.074219 11.097656 "/>
<path style=" stroke:none;fill-rule:nonzero;fill:rgb(0%,0%,0%);fill-opacity:1;" d="M 81.804688 11.6875 C 79.808594 13.835938 80.179688 16.941406 82.542969 17.828125 C 84.6875 18.644531 86.460938 18.273438 86.460938 17.015625 C 86.460938 16.496094 85.871094 16.347656 85.054688 16.644531 C 84.242188 16.867188 83.28125 16.570312 82.691406 15.832031 C 81.433594 14.277344 82.765625 12.132812 84.984375 12.429688 C 86.015625 12.503906 86.460938 12.207031 86.3125 11.6875 C 85.796875 10.136719 83.136719 10.210938 81.804688 11.6875 Z M 81.804688 11.6875 "/>
<path style=" stroke:none;fill-rule:nonzero;fill:rgb(0%,0%,0%);fill-opacity:1;" d="M 90.894531 13.613281 C 90.894531 17.460938 92.445312 19.234375 94.589844 17.976562 C 95.550781 17.3125 96.066406 17.3125 96.730469 17.976562 C 97.324219 18.570312 97.546875 17.679688 97.546875 14.574219 C 97.546875 12.28125 97.25 10.355469 96.804688 10.355469 C 96.4375 10.355469 96.066406 11.46875 96.066406 12.871094 C 96.066406 15.460938 94.515625 17.53125 93.109375 16.644531 C 92.742188 16.421875 92.371094 14.871094 92.371094 13.242188 C 92.371094 11.6875 92.078125 10.355469 91.632812 10.355469 C 91.265625 10.355469 90.894531 11.835938 90.894531 13.613281 Z M 90.894531 13.613281 "/>
<path style=" stroke:none;fill-rule:nonzero;fill:rgb(0%,0%,0%);fill-opacity:1;" d="M 102.347656 11.246094 C 101.683594 13.019531 102.199219 18.125 103.085938 18.125 C 104.121094 18.125 104.492188 11.835938 103.53125 10.875 C 103.011719 10.355469 102.644531 10.503906 102.347656 11.246094 Z M 102.347656 11.246094 "/>
<path style=" stroke:none;fill-rule:nonzero;fill:rgb(0%,0%,0%);fill-opacity:1;" d="M 121.710938 11.6875 C 119.863281 13.6875 120.15625 16.054688 122.375 17.53125 C 123.925781 18.496094 124.589844 18.570312 125.699219 17.902344 C 126.585938 17.3125 127.105469 17.3125 127.105469 17.753906 C 127.105469 18.125 127.472656 18.496094 127.84375 18.496094 C 128.285156 18.496094 128.582031 16.644531 128.582031 14.425781 C 128.582031 12.207031 128.285156 10.355469 127.84375 10.355469 C 127.472656 10.355469 127.105469 10.726562 127.105469 11.246094 C 127.105469 11.910156 126.882812 11.910156 126.21875 11.246094 C 124.960938 9.988281 123.113281 10.136719 121.710938 11.6875 Z M 126.660156 13.539062 C 127.324219 14.648438 127.179688 15.09375 126.070312 15.980469 C 124.148438 17.386719 123.632812 17.3125 122.671875 15.460938 C 121.042969 12.429688 124.8125 10.578125 126.660156 13.539062 Z M 126.660156 13.539062 "/>
<path style=" stroke:none;fill-rule:nonzero;fill:rgb(0%,0%,0%);fill-opacity:1;" d="M 146.910156 11.246094 C 144.25 13.464844 144.988281 17.238281 148.164062 18.050781 C 150.75 18.71875 152.96875 16.792969 152.96875 13.980469 C 152.96875 10.875 149.421875 9.320312 146.910156 11.246094 Z M 151.046875 13.539062 C 152.230469 15.386719 149.863281 17.679688 148.238281 16.277344 C 146.835938 15.164062 146.6875 12.871094 148.015625 12.355469 C 149.347656 11.761719 150.160156 12.132812 151.046875 13.539062 Z M 151.046875 13.539062 "/>
<path style=" stroke:none;fill-rule:nonzero;fill:rgb(0%,0%,0%);fill-opacity:1;" d="M 165.308594 11.6875 C 163.460938 13.6875 163.757812 16.054688 165.972656 17.53125 C 167.527344 18.496094 168.191406 18.570312 169.300781 17.902344 C 170.1875 17.3125 170.703125 17.3125 170.703125 17.753906 C 170.703125 18.125 171.074219 18.496094 171.441406 18.496094 C 171.886719 18.496094 172.183594 16.644531 172.183594 14.425781 C 172.183594 12.207031 171.886719 10.355469 171.441406 10.355469 C 171.074219 10.355469 170.703125 10.726562 170.703125 11.246094 C 170.703125 11.910156 170.480469 11.910156 169.816406 11.246094 C 168.5625 9.988281 166.714844 10.136719 165.308594 11.6875 Z M 170.261719 13.539062 C 170.925781 14.648438 170.777344 15.09375 169.667969 15.980469 C 167.746094 17.386719 167.230469 17.3125 166.269531 15.460938 C 164.644531 12.429688 168.414062 10.578125 170.261719 13.539062 Z M 170.261719 13.539062 "/>
<path style=" stroke:none;fill-rule:nonzero;fill:rgb(0%,0%,0%);fill-opacity:1;" d="M 192.726562 12.722656 C 192.578125 14.054688 192.578125 15.757812 192.726562 16.421875 C 193.019531 18.050781 195.609375 18.863281 196.9375 17.753906 C 197.824219 17.015625 198.046875 17.015625 198.046875 17.679688 C 198.046875 18.199219 198.414062 18.347656 198.785156 18.125 C 199.226562 17.902344 199.523438 16.054688 199.523438 13.980469 C 199.523438 11.984375 199.226562 10.355469 198.785156 10.355469 C 198.414062 10.355469 198.046875 11.320312 198.046875 12.429688 C 198.046875 14.945312 196.347656 17.460938 195.238281 16.71875 C 194.71875 16.421875 194.351562 14.871094 194.351562 13.242188 C 194.351562 9.765625 193.167969 9.394531 192.726562 12.722656 Z M 192.726562 12.722656 "/>
<path style=" stroke:none;fill-rule:nonzero;fill:rgb(0%,0%,0%);fill-opacity:1;" d="M 211.570312 11.539062 C 210.976562 13.019531 211.71875 18.125 212.457031 18.125 C 212.898438 18.125 213.269531 16.867188 213.417969 15.3125 C 213.566406 13.835938 213.933594 12.578125 214.378906 12.578125 C 214.746094 12.578125 215.265625 12.578125 215.632812 12.578125 C 215.929688 12.503906 216.300781 13.6875 216.519531 15.164062 C 217.039062 18.644531 218.292969 18.863281 218.589844 15.535156 C 219.03125 11.097656 221.695312 10.800781 221.695312 15.164062 C 221.695312 16.570312 222.0625 17.902344 222.433594 18.125 C 222.875 18.421875 223.171875 17.164062 223.171875 14.796875 C 223.171875 10.726562 221.914062 9.394531 219.402344 10.949219 C 218.589844 11.46875 217.925781 11.539062 217.628906 11.097656 C 217.039062 10.136719 212.011719 10.503906 211.570312 11.539062 Z M 211.570312 11.539062 "/>
<path style=" stroke:none;fill-rule:nonzero;fill:rgb(0%,0%,0%);fill-opacity:1;" d="M 228.863281 11.6875 C 227.015625 13.6875 227.308594 16.054688 229.527344 17.53125 C 231.078125 18.496094 231.742188 18.570312 232.851562 17.902344 C 233.738281 17.3125 234.257812 17.3125 234.257812 17.753906 C 234.257812 18.125 234.625 18.496094 234.996094 18.496094 C 235.4375 18.496094 235.734375 16.644531 235.734375 14.425781 C 235.734375 12.207031 235.4375 10.355469 234.996094 10.355469 C 234.625 10.355469 234.257812 10.726562 234.257812 11.246094 C 234.257812 11.910156 234.035156 11.910156 233.371094 11.246094 C 232.113281 9.988281 230.265625 10.136719 228.863281 11.6875 Z M 233.8125 13.539062 C 234.476562 14.648438 234.328125 15.09375 233.148438 15.980469 C 231.523438 17.164062 230.636719 17.015625 229.527344 15.386719 C 229.007812 14.5 229.082031 13.835938 229.820312 12.945312 C 231.003906 11.539062 232.703125 11.761719 233.8125 13.539062 Z M 233.8125 13.539062 "/>
<path style=" stroke:none;fill-rule:nonzero;fill:rgb(0%,0%,0%);fill-opacity:1;" d="M 240.609375 11.46875 C 239.871094 13.464844 240.09375 14.054688 242.015625 14.945312 C 244.085938 15.832031 243.714844 17.3125 241.570312 16.792969 C 239.652344 16.277344 239.796875 17.53125 241.644531 18.125 C 243.34375 18.644531 245.339844 17.386719 245.339844 15.832031 C 245.339844 15.238281 244.527344 14.351562 243.492188 13.90625 C 241.351562 12.945312 241.054688 11.613281 242.976562 11.984375 C 243.789062 12.132812 244.453125 11.835938 244.527344 11.46875 C 244.75 10.136719 241.128906 10.210938 240.609375 11.46875 Z M 240.609375 11.46875 "/>
<path style=" stroke:none;fill-rule:nonzero;fill:rgb(0%,0%,0%);fill-opacity:1;" d="M 250.292969 11.6875 C 249.625 12.429688 249.035156 13.761719 249.035156 14.648438 C 249.035156 16.71875 252.140625 18.789062 254.207031 18.125 C 256.054688 17.53125 255.464844 16.644531 253.320312 16.644531 C 252.507812 16.644531 251.472656 16.128906 251.03125 15.386719 C 249.996094 13.761719 251.695312 11.613281 253.617188 12.132812 C 254.503906 12.355469 254.949219 12.132812 254.726562 11.613281 C 254.28125 10.136719 251.621094 10.210938 250.292969 11.6875 Z M 250.292969 11.6875 "/>
<path style=" stroke:none;fill-rule:nonzero;fill:rgb(0%,0%,0%);fill-opacity:1;" d="M 260.121094 11.835938 C 259.308594 12.652344 258.640625 13.835938 258.640625 14.425781 C 258.640625 15.757812 261.230469 18.496094 262.558594 18.496094 C 264.332031 18.496094 266.769531 16.203125 266.769531 14.425781 C 266.769531 12.652344 264.332031 10.355469 262.558594 10.355469 C 262.042969 10.355469 260.933594 11.023438 260.121094 11.835938 Z M 264.851562 13.464844 C 265.808594 15.09375 263.816406 17.460938 262.042969 16.792969 C 260.859375 16.347656 260.414062 13.242188 261.375 12.28125 C 262.1875 11.46875 263.964844 12.058594 264.851562 13.464844 Z M 264.851562 13.464844 "/>
<path style=" stroke:none;fill-rule:nonzero;fill:rgb(0%,0%,0%);fill-opacity:1;" d="M 279.851562 11.6875 C 277.042969 14.796875 278.964844 17.976562 283.839844 18.199219 L 286.722656 18.347656 L 286.722656 14.351562 C 286.722656 12.132812 286.429688 10.355469 285.984375 10.355469 C 285.613281 10.355469 285.246094 10.726562 285.246094 11.246094 C 285.246094 11.910156 285.023438 11.910156 284.359375 11.246094 C 283.101562 9.988281 281.253906 10.136719 279.851562 11.6875 Z M 284.800781 13.539062 C 285.46875 14.648438 285.320312 15.09375 284.210938 15.980469 C 282.289062 17.386719 281.773438 17.3125 280.8125 15.460938 C 279.1875 12.429688 282.953125 10.578125 284.800781 13.539062 Z M 284.800781 13.539062 "/>
</g>
</svg>
