<?xml version="1.0" encoding="UTF-8"?>
<svg xmlns="http://www.w3.org/2000/svg" xmlns:xlink="http://www.w3.org/1999/xlink" width="100px" height="100px" viewBox="0 0 100 100" version="1.1">
<g id="surface1">
<path style=" stroke:none;fill-rule:nonzero;fill:rgb(0%,0%,0%);fill-opacity:1;" d="M 45.507812 11.757812 C 44.453125 11.949219 42.148438 12.800781 40.390625 13.613281 C 36.054688 15.707031 32.578125 19.113281 30.507812 23.410156 C 28.59375 27.320312 28.125 29.832031 28.125 35.910156 L 28.125 40.632812 L 26.679688 40.90625 C 24.648438 41.253906 22.539062 42.683594 21.445312 44.464844 L 20.507812 45.933594 L 20.507812 88.128906 L 21.445312 89.597656 C 21.953125 90.410156 23.085938 91.535156 23.945312 92.113281 L 25.546875 93.15625 L 74.453125 93.15625 L 76.054688 92.113281 C 76.914062 91.535156 78.046875 90.410156 78.554688 89.597656 L 79.492188 88.128906 L 79.492188 45.898438 L 78.4375 44.3125 C 77.226562 42.488281 75.429688 41.289062 73.359375 40.90625 L 71.875 40.632812 L 71.875 35.910156 C 71.875 29.832031 71.40625 27.320312 69.492188 23.410156 C 65.273438 14.660156 55.46875 9.902344 45.507812 11.757812 Z M 55.117188 21.703125 C 57.8125 22.984375 59.492188 24.570312 60.9375 27.242188 C 62.265625 29.640625 62.265625 29.792969 62.421875 35.175781 L 62.578125 40.710938 L 37.421875 40.710938 L 37.578125 35.175781 C 37.734375 30.335938 37.851562 29.445312 38.671875 27.746094 C 40.3125 24.453125 43.476562 21.859375 47.070312 20.929688 C 48.984375 20.425781 53.242188 20.851562 55.117188 21.703125 Z M 75.078125 45.277344 L 76.367188 46.515625 L 76.367188 87.546875 L 75.078125 88.785156 L 73.828125 90.058594 L 26.171875 90.058594 L 24.921875 88.785156 L 23.632812 87.546875 L 23.632812 46.59375 L 24.609375 45.550781 C 25.15625 44.96875 25.9375 44.351562 26.367188 44.15625 C 26.796875 44.003906 37.65625 43.886719 50.46875 43.925781 L 73.828125 44.003906 Z M 75.078125 45.277344 "/>
<path style=" stroke:none;fill-rule:nonzero;fill:rgb(0%,0%,0%);fill-opacity:1;" d="M 48.242188 53.445312 C 46.484375 54.21875 45.507812 55.765625 45.507812 57.78125 C 45.507812 59.40625 45.703125 59.832031 46.796875 60.917969 C 47.890625 62 48.320312 62.191406 50 62.191406 C 51.679688 62.191406 52.109375 62 53.203125 60.917969 C 54.296875 59.832031 54.492188 59.40625 54.492188 57.742188 C 54.492188 56.113281 54.296875 55.648438 53.28125 54.605469 C 51.992188 53.328125 49.6875 52.828125 48.242188 53.445312 Z M 48.242188 53.445312 "/>
<path style=" stroke:none;fill-rule:nonzero;fill:rgb(0%,0%,0%);fill-opacity:1;" d="M 38.867188 59.636719 C 37.109375 60.410156 36.132812 61.960938 36.132812 63.972656 C 36.132812 65.601562 36.328125 66.027344 37.421875 67.109375 C 38.515625 68.191406 38.945312 68.382812 40.625 68.382812 C 42.304688 68.382812 42.734375 68.191406 43.828125 67.109375 C 44.921875 66.027344 45.117188 65.601562 45.117188 63.933594 C 45.117188 62.308594 44.921875 61.84375 43.90625 60.800781 C 42.617188 59.519531 40.3125 59.019531 38.867188 59.636719 Z M 38.867188 59.636719 "/>
<path style=" stroke:none;fill-rule:nonzero;fill:rgb(0%,0%,0%);fill-opacity:1;" d="M 57.617188 59.636719 C 55.859375 60.410156 54.882812 61.960938 54.882812 63.972656 C 54.882812 65.601562 55.078125 66.027344 56.171875 67.109375 C 57.265625 68.191406 57.695312 68.382812 59.375 68.382812 C 61.054688 68.382812 61.484375 68.191406 62.578125 67.109375 C 63.671875 66.027344 63.867188 65.601562 63.867188 63.933594 C 63.867188 62.308594 63.671875 61.84375 62.65625 60.800781 C 61.367188 59.519531 59.0625 59.019531 57.617188 59.636719 Z M 57.617188 59.636719 "/>
<path style=" stroke:none;fill-rule:nonzero;fill:rgb(0%,0%,0%);fill-opacity:1;" d="M 45.117188 68.925781 C 44.6875 69.121094 43.90625 69.742188 43.359375 70.324219 C 42.460938 71.25 42.382812 71.675781 42.382812 74.8125 C 42.382812 78.179688 42.421875 78.257812 43.671875 79.496094 L 44.921875 80.769531 L 55.078125 80.769531 L 56.328125 79.496094 C 57.578125 78.257812 57.617188 78.179688 57.617188 74.773438 C 57.617188 71.367188 57.578125 71.289062 56.328125 70.050781 L 55.078125 68.773438 L 50.46875 68.695312 C 47.96875 68.617188 45.546875 68.734375 45.117188 68.925781 Z M 45.117188 68.925781 "/>
</g>
</svg>
